<?xml version="1.0" encoding="utf-8"?>
<!DOCTYPE svg PUBLIC "-//W3C//DTD SVG 1.0//EN" "http://www.w3.org/TR/2001/REC-SVG-20010904/DTD/svg10.dtd">
<svg version="1.0" xmlns="http://www.w3.org/2000/svg" width="626px" height="626px" viewBox="0 0 626 626" preserveAspectRatio="xMidYMid meet">
 <g fill="none" stroke="#000000" stroke-width="0.5">
  <path d="M0.20 0.20L2.40 0.10L8.60 0.10L32.60 0.10L125.70 0.10L486.90 0.10L591.70 0.10L617.40 0.10L623.70 0.10L625.80 0.30L625.90 1.90L625.90 6.20L625.90 22.90L625.90 87.90L625.90 339.80L625.90 555.80L625.90 608.70L625.90 621.60L625.90 624.80L625.70 625.90L623.50 626L617.30 626L593.30 626L500.20 626L139 626L34.20 626L8.50 626L2.20 626L0.10 625.80L0 624.20L0 619.90L0 603.20L0 538.20L0 286.20L0 70.30L0 17.40L0 4.50L0 1.30L0.20 0.20M298 108.70C294.60 111.60 292.10 115.40 288.80 118.40C288.50 118.60 288.20 118.90 287.80 118.90C287 118.70 286.10 117.50 285.40 118.70C284.60 120.20 287.10 121 286.60 122.40C286.10 123.40 285.40 124.40 284.90 125.40C283.90 127.70 283 130.10 282.20 132.60C279 142.90 278.20 153.70 279.20 164.40C279.40 166.70 279.60 168.90 279.90 171.20C280.10 172.30 280.50 173.40 280.50 174.50C280.40 175.20 279.30 174.50 279.30 175.30C279.40 176 280.50 176.50 280.90 177.10C281.70 178.50 282 180.10 282.60 181.60C283.50 183.80 284.70 186 286 188C286.60 188.90 287.20 189.70 287.80 190.60C288 190.90 288.40 191.30 288.30 191.70C288.10 192.60 286.10 192.50 285.50 192.50M359.10 156.20C360.20 157.70 360.10 160 359.80 161.70C359.40 164.60 358.80 167.60 357.90 170.40C357.60 171.20 357 171.80 356.80 172.60C356.60 173.10 356.80 173.60 356.80 174.10C356.70 175.20 356.30 176.30 355.90 177.40C355.50 178.20 355.10 179.20 354.40 179.90C354.10 180.20 353.30 180.10 353.20 180.50C353 181 353.60 181.20 353.70 181.50C353.90 181.90 353.70 182.40 353.60 182.70C350.70 190.20 345.30 197.10 339.80 202.80C334.20 208.70 328.30 213.90 320.50 216.50C317.20 217.60 313.60 218.30 310.20 217.80C306.60 217.20 303.30 215.60 300.20 213.80C293.60 209.80 287.90 204.20 283.10 198.20C279.60 193.80 276.40 188.90 274.40 183.60C271.80 176.80 270.80 169.10 270.50 161.90C270.10 153.70 270.40 145.30 272 137.20C272.40 135.20 273 133.30 273.50 131.30C273.50 131 274 129.70 273.60 129.40C273.10 129.10 271.70 130.40 271.30 130.60C269 132.20 266.60 133.90 264.50 135.70C260.30 139.30 256.30 143.50 252.60 147.60C251.60 148.80 250.50 149.90 249.50 151.10C249.10 151.60 248.70 152.30 248.30 152.80C247.40 153.50 245.90 151.30 244.90 152.60C243.60 154.20 246.50 154.30 246.40 155.20C246.40 155.60 246 156 245.70 156.30C244.70 157.30 243.30 157.50 242.30 158.30C242.60 158.60 243 159 243.10 159.40C243.10 159.90 242.70 160.40 242.50 160.80C241.90 161.70 241.20 162.60 240.60 163.50C237.80 167.60 235.40 172.10 233.10 176.50C231.10 180.40 229 184.40 226.90 188.30C225.30 191.30 223.60 194.50 221.30 197C218.80 199.70 215.10 202.40 211.50 203.50C210.60 203.80 209.80 202.90 209.10 203.20C208.60 203.50 208.40 204.10 208 204.50C207.70 205 207.10 205.30 206.50 205.60C201.80 207.70 196.10 208.30 191 209C186.90 209.60 182.90 209.90 178.80 210.30C177.80 210.40 176.70 210.50 175.70 210.60C175.40 210.60 174.90 210.80 174.70 210.50C174.40 210.20 174.30 209.50 174.10 209.10C173.70 207.70 173.40 206.20 173.20 204.80C173.10 204.20 173 203.40 173.60 203C174.80 202.30 176.60 202.70 177.80 203C178.30 203.20 179.20 203.60 179.70 203.40C180.20 203.20 180.30 202.60 180.90 202.40C182.60 201.90 184.40 202 186.10 201.90C189.30 201.60 192.50 201.30 195.70 200.80C203.10 199.50 209.80 196.60 215 191.10C220.70 185.10 222.70 176.50 227.30 169.80C227.70 169.20 228.20 168.50 229 168.30C229.70 168 230.80 168 231.20 167.30C231.40 166.90 231 166.70 230.70 166.60C230.10 166.50 229.20 166.70 229.50 165.70C230.20 163.50 232.10 161.40 233.40 159.50C235.90 155.70 238.30 151.80 241.20 148.20C244.90 143.50 248.80 138.70 253.30 134.70C254.20 133.90 255.30 133.60 256.20 132.90C256.60 132.50 256.70 131.90 257 131.40C257.50 130.60 258.30 130 259 129.40C265.80 123.80 273.60 118.90 281.60 115.10C285.30 113.30 289 111.80 292.90 110.50C294.30 110 295.90 109.20 297.40 109M346.50 180.90C345.30 180.60 344.50 179.70 344.60 178.40C344.80 177 345.30 175.70 345.60 174.40C346.20 170.80 346.70 167.10 347 163.50C348.10 150.30 346.90 135.70 340.30 123.90C338.40 120.40 336.10 116.90 333.40 113.90C332.50 112.90 331.60 112 330.60 111.10C330 110.60 329.30 110.10 329 109.40L329.10 109.30C333.10 109.80 337.30 111.90 341 113.50C352.70 118.50 363 125.80 372.40 134.30C375.80 137.40 378.90 140.90 381.90 144.40C382.60 145.20 383.30 146.10 383.90 147C384.10 147.30 384.50 147.70 384.40 148.10C384.10 148.90 381.80 148.90 381.10 149.20C381.50 149.80 382.40 149.80 383.10 149.90C384.60 150.10 385.90 150 387.10 151.20C388.60 152.80 389.80 154.90 391 156.70C393.40 160.30 395.60 164 397.80 167.70C400.70 172.80 403.30 178 406.10 183.20C407.40 185.70 408.60 188.30 410.40 190.60C411.40 191.90 413.10 192.70 413.80 194.20C414.30 195.30 414.20 196.90 414.60 198.10C415 199.70 416.10 202.40 415.40 204.10C415.20 204.70 414.60 204.50 414.20 204.20C413.30 203.80 412.50 203.20 411.70 202.70C408.10 200.30 405 197.70 402.60 194C392.80 178.50 387.60 160.20 375.20 146.40C371.40 142.30 367.30 138.30 362.80 134.90C361.80 134.10 360.80 133.40 359.70 132.70C359.20 132.30 358.80 131.90 358.20 132.30L357.50 131.10M358.10 131.80L358.50 132M358.20 132.30C358.40 133.70 358.80 135.20 359.10 136.60C359.90 141.20 360.50 146 360.50 150.70C360.50 152.60 361.10 155.70 359.60 157.10M341.90 147.40C341.30 148 339.30 147.40 338.50 147.20C335.50 146.80 332.40 146.50 329.30 146.40C326 146.30 322.70 146 319.40 145.90C311.50 145.60 303.60 145.90 295.70 146.40C292.90 146.60 290.10 147 287.30 147.30C286.30 147.50 284.70 148 283.90 147.30C285.20 146.50 287 146.20 288.50 145.90C291 145.30 293.50 144.80 296 144.40C307.50 142.40 319.80 142.10 331.30 144.40C334.30 145 337.30 145.70 340.20 146.60C341.30 146.90 342.50 147.90 343.60 148M282.70 148L283.90 147.30M283.50 147.60L284.20 147.70M342.50 147.60L341.90 147.80M335.70 150.80C335 151.60 334 151.50 333.10 151.70C331.90 152 330.80 152.60 329.70 153C325.50 154.90 321.50 157.30 317.80 159.90C316.60 160.70 315.50 161.70 314.30 162.50C313.80 162.80 313.20 163.20 312.60 162.90C310.60 162.20 308.90 160.30 307.10 159.10C303.60 156.80 299.80 154.60 295.90 152.90C294.30 152.30 292.90 151.90 291.30 151.50C291.10 151.40 290.10 150.90 290.60 150.70C291 150.50 291.60 150.70 291.90 150.70C293 150.90 294.20 151.20 295.30 151.50C299.80 152.60 304 154.20 308.30 156.10C309.40 156.60 310.50 157.10 311.60 157.60C312.10 157.90 312.70 158.30 313.30 158.10C315.40 157.50 317.40 156.20 319.40 155.30C322.80 153.80 326.20 152.60 329.80 151.70C331.20 151.30 332.50 151 333.90 150.80C334.50 150.70 335.20 150.50 335.70 150.80M359.50 156.60L359.90 156.80M274.30 164.70C275.50 164.40 275.90 165.80 274.60 166.10C274.30 166.10 273.10 166.30 272.90 165.90C272.50 165.40 273.90 164.70 274.30 164.70M348.70 165.30L350.30 166.40C349.50 166.80 348.50 166.20 348.70 165.30M349 165.50L348.70 165.80M345.10 180.40L343.70 180.90L342.80 183.40L338.90 189.80L330.70 199.70L329.80 202.40C329.50 202.20 329.10 201.60 328.70 201.50C328.20 201.40 327.80 202 327.50 202.30C326.60 203.20 325.60 203.90 324.60 204.60C321.30 206.80 316.60 209.90 312.40 209.40C302.80 208.20 296.90 199.90 290.10 194C289.30 193.40 288.40 193 287.60 192.40M345.60 180.60L345 180.70M258.50 181.60C258.60 182.20 259.10 183.20 259.10 183.80C259.10 184.20 258.70 184.40 258.70 184.80C258.60 186.20 258.90 187.70 259 189.10C259.70 194.80 261 200.60 262.90 206C263.90 208.70 265 212.10 267.10 214.20M367.50 181.60C367.40 182.30 367.10 183.10 367 183.80C367 184.20 367.30 184.60 367.30 185C367.30 186.50 367.10 188 367 189.40C366.30 195 365 200.50 363.20 205.80C362.60 207.80 361.70 209.90 360.60 211.70C360.30 212.10 359.30 213.20 359.60 213.70C359.90 214.30 361.30 213.70 361.80 213.60C364 213.30 366.20 213 368.40 213C370.90 213 373.30 212.70 375.80 212.70C379.40 212.70 383 212.60 386.50 212.70C387 212.70 387.30 213 387.80 213C390.90 213 393.90 212.80 397 212.80M258.80 183.40L258.70 184.20M367.20 183.40L367.30 184.30M259.30 184.10C259.70 187.10 261 190.30 262.10 193.20C264.50 199.80 267.50 206.20 271.40 212.10C272.70 214 274 215.80 275.50 217.50C276.30 218.50 277.40 219.40 278 220.60C277.40 220.70 276.90 220.40 276.40 220.10C275.50 219.60 274.50 219.20 273.60 218.80C270.40 217.60 267 216.80 263.60 216.10C256.70 214.70 249.60 214 242.60 213.50C240.80 213.40 239.10 213 237.30 212.90C234.40 212.70 231.40 212.80 228.50 212.80M366.80 184.10C365 193 361 202.10 356.20 209.80C354.50 212.40 352.70 214.90 350.70 217.30C350.20 217.90 349.60 218.60 349.10 219.20C348.90 219.40 348.50 219.70 348.50 220C348.50 220.80 350.20 219.80 350.50 219.70C352.70 218.70 354.90 218 357.10 217.40C364.10 215.30 371.40 214.50 378.60 213.80C380.40 213.60 382.30 213.40 384.20 213.40C385.10 213.40 386.50 213.50 387.20 213M217.50 192.10C218.50 191.80 219.90 193.10 220.30 193.90C220.60 194.50 220.50 195.30 219.80 195.50C218.80 195.80 217.40 195.30 216.80 194.40C216.40 193.60 216.50 192.40 217.50 192.10M428.80 197.80C429.50 197.70 430.50 198.10 431.20 198.20C432.60 198.50 433.90 198.80 435.30 199.10C438.90 199.80 442.60 200.60 446.20 201.40C448.30 201.80 450.80 202.20 452.70 203.30C453.50 203.80 453.30 204.40 453 205.10C452.70 206.30 452.40 207.40 452.10 208.60C452 209 451.90 210.10 451.50 210.30C451 210.50 450 210.20 449.50 210.10C447.60 209.80 445.80 209.40 443.90 208.90C442 208.40 440 208.40 438.10 208.30C435.80 208.10 433.50 207.90 431.20 207.60C429.70 207.30 427 206.40 425.50 207C424.90 207.30 424.40 208.90 424 209.50C422.40 211.80 420.50 213.80 418.50 215.70C418 216.20 416.90 217.60 416.20 217.60C415.60 217.60 416.30 216.70 416.40 216.60C417.20 215.70 418.10 214.80 418.90 213.90C420.80 211.60 422.40 208.90 423.30 206.10C424 204.30 423.80 201.80 424.70 200.10C425.30 199.10 427.70 198 428.80 197.80M438.70 202.30L438.30 202.70C438.10 202.30 438.30 202.10 438.70 202.30M438.70 202.30L439.70 202.90C439.20 203.30 438.90 203 438.40 202.70M439.50 202.80L439.10 203.20M439.80 202.90L440 203.40L439.40 203.30M440.10 203.50L440.90 204M194.70 204.20C195.60 204 196 204.80 195 205C193.90 205.30 193.50 204.40 194.70 204.20M238.70 213C239.30 212.60 239.90 212.70 240.60 212.70L244.30 212.70C249.40 212.70 254.60 212.60 259.70 213.10C261.30 213.30 262.90 213.40 264.50 213.70C265.20 213.80 266 214.20 266.60 213.60M359.30 213.70L359.20 214L359.70 214M359.20 214L359 214.20M266.40 214.10L266.70 214.10M413 255.10C417 252.10 420.50 248.30 424 244.80C428.50 240.30 433 235.90 436.90 230.80C438.90 228.20 440.90 225.50 442.70 222.80C443.40 221.70 444 220.10 444.90 219.10C445.50 218.50 446.40 218.20 447.10 217.60C447.80 217 448.30 216.10 449.10 215.70C449.40 216.80 448.40 218.30 447.90 219.20C446.20 222.10 444.30 224.80 442.30 227.40C436.90 234.50 430.60 241.10 423.90 247.10C420.30 250.40 416.40 254 412.10 256.40L412 256.30L411.90 256.20L413.10 255.30L413.20 255.40L413.10 255.50L413 255.40L413 255.20M212.80 254.80L212.40 255.20C209.10 252.40 205.60 249.80 202.30 247C196.10 241.50 190.40 235.50 185.20 229.10C183 226.30 180.90 223.30 179.10 220.20C178.30 218.90 177.40 217.40 177 215.90L177.10 215.80C180.20 217.30 182.20 220.60 184 223.40C185.60 225.90 187.40 228.20 189.20 230.50C196.40 239.60 204.60 247.50 213.30 255.10L213 255.60L213.10 255.70L213.60 255.60L213.70 255.50L213.40 255.80M416 217.40L416.10 217.50M415.90 217.50L415.60 217.80L416 217.60M415.90 217.90L415.30 218.30L415.60 217.80M414.30 219.10L415.20 218.30M348.40 220.10C348.30 220.40 348.30 220.60 348.70 220.50M277.70 220.20L277.30 220.60M348.20 220.50L347.50 221.10M278 220.70L278.50 221.10M289.40 232.90C287.70 231.70 287.80 229.30 289.40 228.10C291.20 226.70 293.60 226.40 295.80 226.70C298.20 227.10 300.70 228.50 301.60 230.90C302 231.90 301.40 233.20 302.10 234C302.90 234.90 304.30 235.50 305.30 236.10C307.10 237.10 308.90 238.10 310.80 239C311.60 239.40 312.50 240 313.40 240.20C313.90 240.30 314.40 239.90 314.80 239.70C315.90 239.10 317.10 238.60 318.20 237.90C320.40 236.70 323.30 235.70 325 233.70C325.70 232.70 325.40 231.50 325.80 230.40C326.70 228.30 329.20 227 331.30 226.50C333.50 226 336.30 226.20 338 227.90C338.80 228.70 339.60 230.80 338.70 231.80C338.20 232.30 337.60 232.40 337 232.70C337.60 233.30 338.60 232.90 339.40 233C340.30 233.20 341.20 234 341.70 234.70C343.70 237.20 340.40 240.70 338.20 241.70C337 242.30 335.60 242.40 334.30 242.50C333.70 242.60 332.80 242.80 332.20 242.50C331.70 242.10 331.80 240.90 331.20 240.80C330.80 240.70 330.20 241.20 329.90 241.30C328.80 241.90 327.80 242.40 326.70 242.90C325.80 243.40 324.70 243.50 323.80 244C323.50 244.10 323.10 244.30 323 244.70C323 245.10 323.70 245.40 324 245.50C325.10 246 326.20 246.50 327.40 246.70C328.80 246.90 329.70 246.10 331 245.80C333.70 245.10 337.80 246.40 337.40 249.80C337.30 250.70 336.70 251.60 336.20 252.30C335.50 253.20 333.80 255.30 332.50 255.10C331.30 254.80 330.30 253.40 329.30 252.80C328.60 252.40 327.60 252.40 326.90 251.90C326.50 251.70 326.60 251.10 326.30 250.90C325.90 250.70 324 251.20 323.80 251.50C323.20 252.30 324.40 252.80 325 252.90C327.20 253.20 328.80 253 330.40 254.90C330.90 255.50 331.30 256 331.20 256.80C330.80 260 326.40 263.10 323.40 261.40C321.40 260.30 321.40 257.80 320.10 256.10C319.20 254.90 318 253.80 316.90 252.80C316.30 252.20 315.60 251.80 315.20 251L315.30 250.90L315.40 251L315.50 251.10L315.40 251.20L315.20 251.20M337.20 233.10L336.50 232.80L336.60 232.70L336.70 232.70L336.80 232.60L336.90 232.60M336.70 233.20L336 232.90L336.10 232.80L336.20 232.70L336.30 232.70L336.40 232.70M289.20 232.80C288.10 233.60 286.70 233 285.70 234.40C282.70 238.90 288.60 242.90 292.70 242.90C294 242.90 295 242.30 295.90 241.40C296.20 241.10 296.80 240 297.30 240.10C297.60 240.20 297.60 241.30 298 241.50C298.80 242 300.20 242 301.10 242.30C301.70 242.50 302.20 242.60 302.10 243.30L307 245.10L306.50 245.60L306.60 245.70L307.10 245.10M336.20 233.30C334.30 234 332.70 234.50 331.10 235.70C330.70 236 329.90 236.30 329.50 236C328.90 235.60 330.30 234.80 330.60 234.60C332.30 233.70 334 233.20 335.90 232.80M291.90 233.40C293.10 232.80 295.70 234.40 296.80 235C297.10 235.20 298.30 235.80 297.90 236.20C297.60 236.70 296.50 236.20 296.20 235.90C294.80 235 292.90 233.50 291.10 233.30M292.50 233.50L292.30 233.80M293 233.50L292.60 233.90M301.10 237.90L303.30 238.90M305.50 239.80L308.60 241.50M326.60 241.60C326.10 242.20 325.10 242.50 324.40 242.70C324.20 242.70 323.60 242.90 323.60 242.60C323.60 242.20 324.10 242 324.40 241.90C325.30 241.50 326.20 241.50 327.10 241.30M310.40 241.40L310.50 241.40L310.60 241.40L310.70 241.50L310.80 241.60L310.60 241.80L310.50 241.90L310.40 241.80L310.30 241.60L310.40 241.40M310.80 241.60C311.60 241.80 312.60 242.30 313.10 242.90C312.10 243.40 311.10 242.80 310.50 242M318.30 242.40L321.40 241.60M314.60 244.10L316.30 245.30L316.40 245.20L316.50 245.10L316.10 244.80M316.70 245L316.30 245.40M316.80 245.10C317.80 245.40 318.40 246.50 319.50 246.40M295.10 248.70L291.60 249.10L291.80 249.50L291.70 249.60L291.60 249.60L291.50 249.60L291.30 249.10C290.80 249.50 290.10 249.90 289.50 249.60C289.70 249.20 290.30 248.70 290.40 248.20C290.50 247.70 289.70 247.50 290 247C290.30 246.60 291.10 246.30 291.60 246.10C293 245.60 294.60 245.50 296 246C297.10 246.30 297.90 247 299.10 246.90C301.10 246.70 302.90 245.40 305 245.20C305.60 245.20 306 245.50 306.50 245.60M307.20 245.20L308 245.80L308.10 245.90L307.60 246.50L306.80 245.70M306 245.50C305.70 245.90 304.90 247.50 305.50 247.90C306 248.20 306.80 247.80 307.30 247.80C308.80 248 309.60 249.40 309.80 250.70C309.90 251.10 310.20 251.40 310 251.80C309.30 253.50 307.20 254.80 306 256.30C305.20 257.30 305.20 258.30 304.70 259.40C304.20 260.50 303.20 261.30 302.10 261.80C299.70 262.80 297 260.70 295.90 258.70C295.50 258 295.10 257.20 295.20 256.40C295.60 254.40 298 253.10 299.90 253C300.60 253 301.50 253.30 302.20 253.10C302.80 253 303.10 252.10 303 251.60C302.90 251.40 302.80 251.30 302.70 251.30C302.40 251.20 302 251.30 301.70 251.30C301.30 251.20 300.90 250.70 300.50 250.90C300.10 251.10 300 251.70 299.50 251.90C298.40 252.40 297.30 252.50 296.30 253.20C295.50 253.80 294.60 255 293.50 255.10C292.90 255.10 292.30 254.60 291.90 254.20C290.70 253 290.10 251.40 291 249.90L290.80 249.80L290.70 249.70L290.60 249.60M316.50 245.50L319.30 247.50L319.40 247.50L319.20 246.60M307.30 245.90L307.50 245.80M308.10 245.90C308.40 246.20 308 246.40 307.70 246.50M308.50 246L309.10 246.40C308.70 246.80 308.40 246.90 307.90 246.60M309.30 246.50L309.80 246.50L309.70 246.60L309.50 246.80L308.60 247M309.90 246.50L309.50 246.90M310 246.60C312.30 247.30 314.90 249.20 316.70 250.70C317.60 251.50 317.50 252.60 318.80 253L318.90 253.10L318.80 253.20L318.70 253.30L318.40 253M318.30 246.60L318.50 246.60L318.30 246.60M309.40 246.70L308.80 247.10M309.60 247C309.40 247.30 309.30 247.30 309 247.20M319.40 247.50L319.90 248M311.90 248.60L315 250.40L317.50 252.20M292 249L292 249.40L292.70 249M291.50 249.10L291.60 249.10M290.90 249.40L291.20 249.40M290.90 249.60L290.90 249.80M291.40 249.70L291.10 249.90M314.20 250.20L314.50 250.70L314.60 250.70L314.60 250.60L314.70 250.50L314.70 250.40M314.70 250.80L315.10 250.80L314.90 251.10L315 251.20L315.10 251.20L315.20 251.20M315.10 250.60L314.90 250.80M315.50 250.90L315.40 251M315.80 251.50L316 251.50L315.80 251.50M319 253.10L318.60 253.50M319.10 253.20C319.70 253.40 320.20 253.60 320.80 253.70C321.10 253.70 321.50 253.40 321.70 253.50C322.30 253.80 321.50 254.70 321.10 254.80C320.30 254.80 319.40 254.10 318.80 253.60M413.40 254.90L413.40 255.10M213.40 255.10L213.60 255.30M212.50 255.20L213 255.50M213 255.30L213.10 255.40M213.40 255.40L213.30 255.50M213.60 255.40L213.90 256L214 255.90L214.10 255.80L213.70 255.50M412.60 255.50L412.90 255.50M214.10 255.70L215.80 257.40M213.90 255.80L214 255.90M412.50 255.80L412.50 255.90M213.40 255.90L213.80 256.10M213.80 256.20L214.30 256.40M411.90 256.30L409.10 258.40M293.50 319.50L294.10 318L294.20 317.90L294.50 318.20C296.60 315.80 298.30 313 300.10 310.40C303 306.30 305.90 302.20 308.50 297.90C309.90 295.60 311.40 291.10 314.60 291.40C315.50 291.50 316.20 292.30 316.70 293C318 294.70 319 296.70 320.10 298.50C322.70 303 325.90 307.10 329 311.40C330.50 313.60 331.80 316.10 333.60 318.10C334.30 317.40 333.40 316.20 333 315.50C332 313.40 330.50 311.10 330 308.80L330.10 308.70C331.40 309.10 332.60 310.30 333.70 311C336.20 312.80 338.60 314.70 341.20 316.20C346.60 319.40 352.50 320.70 358.40 322.40C360.60 323 362.70 323.80 364.80 324.50C365.50 324.70 366.60 325.40 367.30 325C366.50 324.10 365.10 323.60 364.10 322.90C363.80 322.80 363 322.30 363.30 321.90C363.60 321.50 364.60 321.30 365.10 321.20C366.40 320.80 367.70 320.20 368.90 319.60C372.70 317.40 376.40 314.10 378.40 310C379.30 308.10 379.20 305.90 379.20 303.90C379.20 300.80 379.10 297.70 379.10 294.60C379.10 292.70 378.80 290.10 379.90 288.50C380.20 288 380.80 287.80 381.20 287.40C380.10 286.70 378.20 286.70 376.90 286.60C373.20 286.10 369.60 286.20 365.90 286.60C364.50 286.80 363.10 286.90 361.70 287C361.30 287.10 360.50 287.30 360.20 286.90C360 286.50 360.30 285.90 360.50 285.60C361 284.70 361.80 284 362.20 283C362.80 281.40 362.30 279.60 362.70 277.90C363 276.50 363.90 275.50 364.90 274.50C365.30 274.10 365.70 273.40 366.30 273.20C367.20 272.80 367.10 274.40 367.80 274.10C368.80 273.70 369.40 272.30 370.30 271.70C370.90 271.30 371.40 272 371.80 271.80C372.30 271.50 372.40 269.90 373.10 271.30C373.80 270.90 374.40 269.50 375.20 269.50C375.80 269.40 376.20 270.40 376.80 270.20C377.70 270 378.20 268.20 379.10 269.80C379.40 269.70 379.80 269.20 380.10 269.30C380.60 269.40 381 270.50 381.50 270C381.90 269.60 382 268.90 382.10 268.50C382.50 267 382.30 263.90 383.90 263C384.20 264 383.90 265.40 383.90 266.40C383.90 267.20 383.90 268 384.10 268.70C384.20 268.90 384.30 269.50 384.60 269.40C385.30 269.30 385.70 267.80 385.90 267.30C386.80 265 387.30 262.60 387.50 260.10C387.50 259.40 387.60 258.80 387.70 258.10C387.80 257.90 387.90 257.40 388.20 257.50C388.60 257.60 388.40 259.50 388.40 259.90C388.40 261.80 387.90 263.80 388.10 265.60C388.20 266.20 388.20 267.10 388.80 267.40C389.20 267.60 389.70 267.30 390.10 267.20C391.10 266.70 392 265.90 393 265.70C393 266.30 393 267 392.80 267.60C392 269.20 389.60 269.90 388.10 270.60C384.60 272.30 380.90 273.40 377.30 275C375.90 275.60 374.30 276.20 373 277.10C373.90 277.90 376.30 276.80 377.40 276.50C380.30 275.70 383.50 275.10 386.50 275.10C387.50 275.10 389.10 275.10 389.90 275.80C390.80 276.70 390.10 278.40 389.70 279.40C388.90 281.40 387.90 283.30 387 285.20C386.60 286 385.90 286.90 385.70 287.80C385.60 288.30 386 288.40 386.40 288.20C386.90 288 388.50 286.80 388.80 288C388.90 288.80 388.50 289.90 388.30 290.60C388 292 387.80 293.50 387.70 294.90C387.60 296.90 387.60 299 387.80 301C388.10 303 388.50 305.10 388.30 307.20C388.10 308.50 387.80 309.80 387.50 311.10C387.30 311.70 387.20 312.30 386.60 312.60L386.70 307.70L384.80 298.70M243.80 299.50L241.90 304.80L241.50 309.60L241.10 312L241 312L240.50 309.50L240.30 303.80L240 291L239.50 287.20C240.40 287.40 241 288.10 241.90 288.40C242.30 288.50 242.70 288.20 242.60 287.80C242 286 240.80 284.30 239.90 282.60C239.40 281.60 238.90 280.60 238.50 279.50C238.10 278.50 237.40 277.10 238 276.10C238.60 275.10 240.30 275.10 241.40 275.10C244.50 275.10 247.80 275.80 250.80 276.50C251.80 276.70 253.80 277.60 254.70 276.90C253.40 276 251.80 275.50 250.40 274.90C246.80 273.30 243 272.10 239.40 270.30C238.20 269.80 237 269.20 236 268.40C235.70 268.10 235.10 267.60 235.20 267.10C235.30 266.60 236.50 267.10 236.80 267.20C237.90 267.60 240.20 268.80 241.10 267.50C241.50 267 241.40 266.40 241.40 265.80C241.70 263.90 241.30 261.60 241.10 259.70C241 259.10 240.60 258.30 240.80 257.70C241.70 258.10 242 259.30 242.30 260.10C243.10 262.10 243.60 264.30 244.40 266.30C244.60 266.70 245.50 269.30 246.20 268.40C246.90 267.60 246.20 265.80 246.50 264.90C248.40 266 248.10 269.50 249.90 270.70C250.80 271.30 249.80 268.60 250.60 268.90C251.90 269.20 252.10 271.20 253.20 271.80C253.30 271.60 253.20 270.90 253.50 270.80C253.90 270.70 254.40 271.40 254.60 271.70C255.40 272.70 257.10 276 258.20 274C259.50 274.80 260.20 276.30 261.50 277C261.80 277.20 262.10 276.90 262.40 277C262.80 277.20 263.10 277.80 263.50 278C264 278.40 264.70 278.30 265.10 278.80C265.80 279.80 265.30 281.20 266.20 282.20C266.80 282.90 267.90 283.20 268.70 283.50C268.90 283.60 269.50 283.80 269.70 283.50C269.80 283.30 269.50 283.10 269.40 283C268.90 282.60 268.30 282.50 268 281.80L268.10 281.70L271.60 282.80L273.90 285.40L276.40 288.10L280.70 291.40C280.10 292 279.10 291.30 278.40 291.10C276.30 290.30 274.30 289.50 272.20 288.80C266.30 286.80 260.60 286.40 254.40 286.40C253 286.40 251.70 286.50 250.30 286.60C249.60 286.60 248.60 286.60 248 287.10C247.40 287.60 248.70 288.60 248.80 289.10C249.40 290.90 249.20 293.30 249.10 295.20C249 297.50 249.10 299.80 249 302.10C249 303.90 248.80 305.50 249.10 307.30C249.80 310.60 251.70 313.70 254.20 316C256.30 317.90 258.70 319.40 261.30 320.40C262.10 320.80 263 321.10 263.80 321.50C264.10 321.60 264.60 321.80 264.70 322C264.90 322.50 264.10 322.80 263.80 323C262.70 323.70 261.50 325 260.30 325.30M343 279.80C343.30 280.10 343.90 280.20 344.10 280.50C344.40 280.80 344.20 281.30 344.60 281.40C345.30 281.60 346.40 281.20 347.10 281.10C349.20 280.90 352.10 281 353.50 279.20C355.20 277.10 355.20 274.50 357.10 272.50C359.60 270 362.70 269 365.80 267.50C367.90 266.50 369.60 265.30 371.40 263.70C371.70 263.50 372.80 262.30 373.30 262.80C373.70 263.10 373.20 263.60 373 263.80C372.30 264.60 371.60 265.30 371 266.10C368 269.50 364.70 272.50 361.90 276C360.10 278.30 361.30 281.50 359.40 283.70C357 286.30 352.90 288 349.80 289.50C341.70 293.30 331.90 298.20 322.70 295.30C319.90 294.40 316.20 291.70 316.40 288.40C316.50 287.40 317.20 286.60 317.50 285.70C318 284.30 318.50 283.40 319.80 282.50C323.10 280.50 327 280.10 330.70 279.60C332.20 279.30 333.70 278.70 335.30 278.70C336.90 278.70 338.60 279.10 340.20 279.40C340.80 279.50 341.70 279.90 342.30 279.70C342.80 279.60 342.90 278.90 343.40 278.70C344.10 278.40 345 278.40 345.80 278.20C347.30 277.70 348.80 277.10 350.30 276.50C350.90 276.20 352.40 275 353.10 275.30C353.40 275.40 353.30 275.90 353.30 276.20C353.20 276.90 353.30 278.80 352.50 279.10C351.60 279.50 350.20 279.40 349.20 279.40C347 279.50 344.60 279.30 342.50 279.90M384 262.70L383.80 263M393.40 265.10L393.10 265.60M296.50 282.50C295.80 282 295.20 281.10 294.60 280.40C294.40 280.10 294.20 279.80 294.50 279.50C294.90 278.90 296.10 278.80 296.80 279C297.60 279.10 298.30 279.40 299.10 279.40C300.90 279.50 302.50 279.10 304.30 279.60C305.90 279.90 307.90 280.50 308.90 281.90C309.70 282.90 309.90 284.30 309.90 285.50C310 288.20 309.30 290.60 307.20 292.40C300.80 297.80 292.40 294.50 286.30 290.60C284.90 289.60 283 289.20 281.80 287.90C280.30 286.20 280.30 283.80 279.40 281.80C278.30 279.60 276.70 277.80 275.20 275.90C274.80 275.40 273.80 274.40 274.20 273.70C274.70 272.80 275.70 273.70 276.30 274C276.80 274.20 277.40 274.20 277.90 274.40C280.90 275.60 283.50 277.60 286.50 278.80C287.40 279.10 289.10 280 289.80 279.10L290.60 279.50L289.60 279.70M254.80 276.90L254.40 277.30M254.90 277L256.60 277.90M371.80 277.90L373 277.10M255.30 277.30L254.70 277.40M287.20 277.50L286.80 277.90C286.40 277.10 287.60 277.50 288.10 277.60C289.30 277.80 290.40 277.90 291.60 278.10C292.10 278.20 292.70 278.20 293.10 278.60C293.50 278.90 293.20 279.80 292.70 279.90C291.80 280.30 291.20 280.30 290.30 279.90M286.30 277.40L286.60 277.40M267.70 277.60C269.70 277.40 272.30 277.90 274 279C274.60 279.40 276.40 281.20 274.80 281.70C274.10 281.80 273.30 281.50 272.60 281.40C271.20 281.10 269.60 281.40 268.30 280.50C267.60 280.10 266.90 279.30 266.50 278.70C266.30 278.50 266.10 278.10 266.30 277.90C266.50 277.60 267.30 277.70 267.70 277.60M372.80 277.60L373.30 277.50M287 278L289.70 279.20M289.90 279.40L289.70 279.70M342.80 279.40L343 279.60M290.20 279.50L290 279.80M290.70 279.50L292 280M290.70 279.70L290.50 280M291 279.80L290.80 280.10M291.30 279.90L291.10 280.20M291.70 279.90L291.30 280.30M332 281L328.50 282.70L328.50 282.60C328.60 282 329.10 280.90 329.70 280.70C330 280.60 330.40 280.80 330.70 280.70C331.30 280.60 331.70 280.30 332.10 280.90C335.10 279.60 338.70 280.30 341.80 281.10C342.90 281.40 343.70 282.20 344.80 282.40C345.30 282.50 345.90 282.30 346.40 282.30M332 280.40L332.60 280.50M335.90 280.30L335.90 280.70L334.50 280.40M291.80 280.50C292.80 280.80 294.70 282.30 295.60 281.60M336 280.80C337.40 280.80 338.90 281.30 340.20 281.90C341.60 282.60 343.30 283.70 344.80 282.50M268.50 281.90L268.20 282.20M295.40 282.10L295.80 282.10M303.10 282.30C303.70 282.80 304.50 283.10 304.80 283.90C305.40 285.20 303.90 288.40 302.80 289.10C301.40 290 298.90 290.10 297.20 290C296.10 289.90 295.30 289 294.50 288.30C293.30 287.30 292 286.40 290.60 285.70C289.30 285.10 287.80 285.20 286.60 284.50C286.30 284.30 285.40 283.80 285.70 283.40C285.90 283 286.70 283.30 287 283.40C288.20 283.80 289.40 284.20 290.50 284.80C291.90 285.50 293.40 286.20 294.70 287.20C295.50 287.70 296.10 288.60 297 288.90C298 289.20 299.90 289.40 300.80 288.90C301.20 288.60 301.60 288.10 302 287.80C302.70 287.40 303.60 286.90 303.80 286.10C304.20 285 303.60 283.80 303.30 282.70M328.50 282.70L327.50 283.70M303.90 282.80L303.50 283.20M342.40 287.40L341.90 287.10L342 287L342.10 286.90L342.50 287.40C343.50 286.40 345.10 286 346.40 285.40C347.90 284.70 349.30 283.80 350.80 283.30M327.40 286.30L326.40 287.10C327.40 287.80 329.10 287 330.20 287C332 287.10 333.80 287.10 335.60 287.20C336 287.20 336.30 287.60 336.70 287.60C337.10 287.60 337.30 287.10 337.80 287.10C339.20 287 340.40 287.30 341.80 287M239 286.40L239.40 287.10M342.30 286.90L342.80 287M330.90 287.20C329.70 288.20 327.20 288.20 325.70 288.50C325 288.70 324.40 288.90 323.80 288.40C324.30 287.80 325.50 286.90 326.30 287.10M336.10 287.20C336.50 287 336.80 287 337.20 287.20M381.20 287.40L381.40 287.40M337.10 287.70C339.10 287.90 340.40 288.50 342.20 287.50M385.50 288.20L385.40 288.60L385.90 288.50M242.80 288.30C242.70 288.60 242.60 288.60 242.30 288.60M323.80 288.40L323.40 288.90M385.40 288.60L384.50 289.60M323.70 288.90L324.10 288.80M280.50 291.30L280.10 291.70M280.70 291.40L282.20 292.20M281.10 291.70L280.50 291.80M293.40 322.50C294.50 320.90 295.90 319.50 297.20 318C298.50 316.40 299.60 314.70 300.70 313C302.30 310.70 304.10 308.40 306 306.40C307.90 304.40 309.90 302.30 311.50 300C311.80 299.60 312.70 297.80 313.40 297.90C313.80 298 313.70 299.20 313.70 299.50C313.70 301.20 313.90 302.90 313.10 304.40C311.90 306.60 309.90 308.50 308.20 310.20C305.60 312.80 302.90 315.40 300.10 317.90C298.50 319.20 297 320.60 295.40 321.90C294.80 322.30 294.10 323.10 293.40 322.60L293.30 322.70L293.20 322.90L293.70 323M337.50 310L337.50 310.10C335.90 309.70 334.70 307.70 333.30 306.90C332.50 306.40 331.50 306.20 330.70 305.80C328.60 304.90 326.60 303.90 325 302.30C324.10 301.40 323.40 300.50 322.90 299.40C322.80 299.10 322.50 298.50 322.70 298.30C322.90 298 323.50 298.50 323.70 298.60C324.60 299.30 325.40 300.20 326.30 300.90C329 303.10 332 304.70 334.70 306.90C335.70 307.80 337.10 308.80 337.50 310M261.60 324.50C262.30 325.10 263.30 324.50 264 324.20C266.20 323.50 268.30 322.80 270.50 322.10C273.40 321.30 276.30 320.70 279.20 319.70C280.50 319.30 281.80 319 282.90 318.30C284.80 317.20 286.40 315.30 287.90 313.70C290.60 310.80 293.20 307.70 296.10 304.90C298 303.10 300.30 301.80 302.60 300.70C303 300.50 305.10 299.30 305 300.30C304.70 301.90 302.60 303.40 301.40 304.30C298.70 306.20 296.10 308.20 293.70 310.40C292.90 311.20 291.50 312.10 291.20 313.20L291.30 313.30C293.80 312.20 295.50 309.70 298.20 308.80C298.30 309.50 297.90 310.10 297.60 310.70C296.90 312.30 296 313.80 295.30 315.40C294.90 316.20 294.10 317.10 294.80 317.90M243.50 300.60C243.90 301.40 243.50 302.70 243.40 303.60C243.20 305.20 243.30 306.90 243.40 308.50C243.70 311.30 244.90 313.90 247.20 315.70C248.40 316.70 249.80 317.30 251.10 318.20C250.60 318.70 250.20 318.40 249.60 318.20C248.70 317.90 247.70 317.50 246.70 317.30C243.80 316.60 240.40 316.40 238.10 318.60C234.20 322.30 235.20 328.70 237.20 333.10C237.90 334.70 238.90 336.40 240.30 337.60C242 338.90 244.40 338.50 246.30 339.60C247 340.10 246.70 341.10 247.50 341.40C248.10 341.70 248.90 341.60 249.60 341.70C251.20 341.90 252.70 342.10 254.30 342.40C254.90 342.50 256.20 342.50 256.60 343C256.90 343.30 256.50 343.60 256.30 343.70C256 344 253.90 344.90 254.50 345.50C255 345.90 256.20 345.80 256.70 345.80L260.60 345.80C261.20 345.80 261.90 345.70 262.50 345.80C262.90 346 262.90 346.80 262.90 347.20C263.10 348.70 263.90 349.60 264.60 350.80L264.70 350.80C266.40 348.80 267.50 346 268.70 343.70C268.90 343.30 270 341.70 269.40 341.40C268.90 341.10 268.20 341.40 267.70 341.40C266.30 341.50 265 341.50 263.60 341.60C262.90 341.60 262.20 341.90 261.60 341.40L263.50 340.90L266.80 339.90L268.50 339.20M384.90 300.60C384.50 301.40 384.70 302.50 384.70 303.40C384.70 305.50 384.80 307.60 384.60 309.70C384.10 313.60 381.30 315.60 378.20 317.50C377.60 317.90 377.10 318.50 376.50 318.80M334 332.90C334.20 332.60 335.10 331.80 334.70 331.50C334.30 331.30 333.60 331.40 333.20 331.40C332.20 331.50 331.10 331.80 330.20 331.40C328.40 330.80 327.60 328.40 325.80 328L325.70 328.10C326.20 329.80 327.20 331.30 328.30 332.70C328.60 333.10 329.10 333.80 328.50 334.20C327.50 335 326 333.80 325 334.30C324.50 334.50 325.60 335.20 325.80 335.30C324.70 336.50 322.70 335.10 322.10 334C320.20 330.70 319.20 326.90 317.70 323.40C317.30 322.50 316.90 321.70 316.60 320.80C316.60 320.60 316.60 319.90 316.30 319.90C315.70 319.80 315.80 322 315.80 322.30C315.40 325 315.80 327.50 314.70 330.10C314.10 331.50 313.30 333.20 312.10 334.10C311.10 334.90 309.80 335.20 308.50 335.30C306.30 335.70 303.90 336 301.70 335.90C299.50 335.80 300.50 334 301.10 332.90C301.30 332.70 301.90 331.80 301.30 331.70C300.80 331.60 300 332.30 299.60 332.60C298.20 333.70 296.90 335 295.40 336C295 336.30 293.70 337.40 293.20 336.80C292.90 336.30 293 335.40 293 334.90C293.10 333.10 293.60 331.40 294.10 329.70C295 327.10 296.10 324.60 297.90 322.60C299.90 320.40 302.40 319 304.70 317.20C306.40 315.80 307.90 314.20 309.30 312.50C310.80 310.70 312.20 308.70 313.60 306.80C314 306.20 314.60 304.90 315.30 304.60C315.80 304.40 316.80 305.40 317.20 305.60C318.90 306.90 320.50 308.40 322 310C325.20 313.40 328.20 316.90 331 320.60C332.30 322.20 333.60 323.90 334.50 325.70C335.70 328 336.60 331.60 334.40 333.40L334 333L333.90 333.10L333.80 333.30L333.80 333.40L333.90 333.50L334 333.50L334.10 333.50L334.20 333.50L334.30 333.40M297.80 309L298.20 309.40M337.50 310.10L338.40 311M129.30 340.50C130.30 341.60 133 343.20 130.70 344.50C128.90 345.50 126.30 345 124.40 344.50C123.60 344.30 122.20 343.50 121.50 344.10C120.60 345 120 346.70 119.50 347.90C118 351.40 116.40 355.80 116.60 359.60C116.70 361.30 117.10 363.10 117.50 364.80C117.70 365.60 118.10 366.30 117.60 367C116.70 365.60 116.40 363.70 116.10 362.10C114.90 356.20 116.20 350.40 118.30 344.80C118.80 343.50 119.40 342.30 120.10 341.10C120.40 340.60 121.10 340 121.20 339.40C121.30 339 120 339 119.70 338.80C119.10 338.20 118.80 337.20 118.80 336.40C118.80 333.90 120 331.30 121.10 329.20C121.70 328.10 122.60 327 122.90 325.70C123.10 325 122.40 323.90 122.30 323.20C122 321.30 121.90 319.20 122.60 317.40C124 313.30 130.20 312.60 133.40 314.90C132.20 316.50 130.10 318.20 128.10 318.50C126.90 318.60 125 317.80 124 318.60C122.90 319.40 123.20 321.80 123.40 323C123.40 323.40 123.50 324.60 124.10 324.40C124.70 324.20 125.30 323.40 125.80 323C127.10 321.90 128.30 320.70 129.50 319.60C132.60 316.80 135.90 314.40 139.90 313C143.70 311.60 148.80 311.20 152.50 313C154.80 314.10 156.60 316 156.30 318.70C156.10 320.10 155.50 321.40 154.90 322.60C154.30 323.80 153.60 325 152.60 326L152.40 325.50L152.60 325.50L152.70 325.50L152.80 325.60L152.90 325.70M462.40 346.40L462.80 346.20L463 346.40L462.70 346.80C461.70 345.70 460 345.40 458.60 345C457.80 344.70 457.20 344.30 456.30 344.20C455.70 344.10 453.80 344.40 453.40 344C453.10 343.80 453.60 343.40 453.70 343.20C454.30 342.50 455 341.90 455.70 341.20C457.90 339.10 460.60 338.50 463.50 338.90C464.50 339.10 465.60 339.40 466.60 339.70C467.20 339.90 467.60 340.10 468.20 339.70C466.40 338.80 464.10 338.30 462.10 338.10C461.70 338.10 459.90 338.10 459.70 337.70C459.60 337.40 460.10 336.90 460.30 336.70C461.10 335.80 461.90 335 462.80 334.30C463.90 333.40 465.10 333 466.20 332.10C467.60 331 468.60 329.60 470.10 328.70C471.50 327.80 473.40 327.30 473.70 325.40C472.40 325.60 472.20 324.60 471.70 323.60C470.70 321.70 469.10 319.20 469.70 317C470.80 313.10 475.50 312.10 479 311.90C487.70 311.50 495.20 317.60 500.70 323.70C503.30 326.60 505.80 329.90 506.90 333.70C507.20 335.10 507.30 336.60 506.60 337.90C506.40 338.30 504.80 339.30 504.80 339.50C505.10 340.10 505.70 340.70 506.10 341.30C506.80 342.60 507.30 343.90 507.90 345.30C510.60 352.40 511.50 360.30 508.30 367.50C508.10 368 507.70 368.30 507.40 368.80M492.70 314.90C495.80 312.30 501.60 313.70 503.40 317.20C503.80 317.90 503.80 318.80 503.80 319.60C503.90 320.90 503.80 322.20 503.50 323.50C503.40 324.10 503.30 324.70 502.80 325C501.90 323.20 503.60 320.80 502.50 319.10C501.60 317.60 498.60 318.80 497.20 318.30C495.20 317.70 494.20 315.80 492.40 314.90M133.40 314.90L133.60 314.90M377.30 318.20C378.10 319 380.20 317.70 381.20 317.40C383.80 316.70 386.70 316.30 389.10 317.80C391.80 319.50 392.90 322.80 392.90 325.90C392.90 332 389 337.90 383.60 340.60C382 341.40 380.10 342 378.30 342.10C377.10 342.20 375.20 341.80 374.20 342.40C374.50 342.80 375.30 343.10 375.40 343.60C375.50 344.10 374.60 344.10 374.30 344.10C373 344 371.80 343.70 370.50 343.50C370.20 343.40 369.10 343.10 368.80 343.50C368.70 343.70 369 344.20 369.10 344.40C369.70 345.20 370.40 346 371 346.80C371.10 347 371.60 347.60 371.30 347.90C370.90 348.40 369.60 347.60 369.20 347.40C367.70 346.70 366.10 346 364.80 345C364.40 344.70 363.60 343.70 363 343.80C362.50 343.90 362.80 344.70 362.90 345C363.20 345.90 363.40 346.80 363.30 347.80C363.30 348.10 363.20 348.70 362.80 348.80C362.30 348.90 361.80 347.70 361.60 347.40C360.80 346 360.20 344.60 359.50 343.20C359.30 342.90 358.70 342 358.90 341.70C359.10 341.30 360.20 341.40 360.60 341.40C361.90 341.40 364.10 341.80 365.30 341.20L365.30 341.10L361.70 339.50L358.20 336.30L356.50 335.20L356.80 335.80L356.90 335.70L357 335.60L356.90 335.50L356.80 335.60L356.70 335.70L356.90 335.70M294.30 317.60L294.60 318M294.20 317.80L294.20 317.90M334.10 317.90L334.70 319.90M251.10 318.20L251.50 318.50L250.90 318.60M333.60 318.20L333.90 318.40M294.50 318.30L294.20 318.50M251.60 318.70L252 318.80M377 318.70L377.50 318.70M383.10 319.40L383 319.80L382.90 319.90L382.60 319.50L383.30 319.30M382.80 319.90C381.50 321 379.90 321.80 378.50 322.80C378.10 323 377.30 323.50 377.30 324C377.40 324.60 378.40 325.20 378.90 325.50C380.60 326.70 382.30 327.70 383.90 329C384.30 329.30 385.90 330.70 385.30 331.30C385 331.70 384.40 331.10 384.20 330.90C383.20 330.10 382.30 329.30 381.30 328.50C378.90 326.80 376.20 325.50 373.60 324C373.20 323.80 371.30 322.90 371.40 322.30C371.60 321.80 372.60 321.70 373 321.60C374.70 321.10 376.40 320.80 378.10 320.50C379.50 320.20 381.10 319.50 382.60 319.50M155.30 319.50C154.70 320.40 154.50 321.60 153.90 322.50C153.70 322.90 153.40 323.40 152.90 323.50C152.20 323.50 152 322.60 152.30 322.10C152.80 321.20 154 320 155 319.80M470.90 319.60C471.20 319.40 471.70 320 471.90 320.20C472.40 320.70 474.40 322.70 473.50 323.30C472.60 324 471.40 321.30 471.10 320.70C471 320.50 470.60 319.80 470.90 319.60M133.40 319.70C133.90 319.70 133.90 320.10 133.80 320.50C133.50 321.30 132.80 322 132.40 322.70C130.20 326.10 129.40 330.10 128.10 333.90C127.80 334.80 127.20 337.30 126 337.50C125.10 337.50 124.80 335.60 124 335.30C123.10 334.90 122.50 336.10 122 336.60C121.70 336.90 121.30 337.10 121 336.70C119.90 335.40 121.20 332.70 121.80 331.40C123.60 327.80 126.40 324.30 129.60 321.80C130.60 321 132.10 319.70 133.40 319.70M492.40 319.70C493.50 319.30 495.40 321.10 496.20 321.70C499.40 324.40 502.30 327.80 504.20 331.50C504.70 332.60 506.50 335.90 504.60 336.60C503.70 336.90 503.30 335.30 502.40 335.20C501.10 335.20 501.20 337.60 500 337.40C499.20 337.30 498.70 335.80 498.40 335.10C497.20 332.40 496.70 329.60 495.70 326.90C494.80 324.80 493.80 323 492.50 321.20C492.20 320.80 491.80 319.90 492.40 319.70M246.40 319.90L247.10 320.40C248.70 319.80 250.90 320.80 252.60 321.20C254.50 321.70 256.30 322.10 258.20 322.50C258.60 322.50 259.80 322.50 259.90 323.10C260 323.90 257.60 324.20 257.10 324.30C254 325.10 250.80 325.60 247.70 326.50C246.40 326.90 244.80 327.30 243.70 328.20C243.50 328.40 242.80 329.30 242.50 328.90C241.70 328.20 243.70 327 244.20 326.80C246.30 325.80 248.60 325.60 250.70 324.80C251.20 324.60 252.50 324.20 252.50 323.50C252.50 323 251.80 322.70 251.40 322.50C250.10 321.80 248.60 321.30 247.30 320.50M247.10 319.90L247.60 320.10M142.60 323C143.80 322.30 146.80 321.90 148 322.70L148 322.80C147.50 323 147.10 323 146.60 323C145.50 323.10 143.30 323.80 142.50 322.90L142.30 323L142.70 323.50M481.10 322.80C480.30 323.20 477.90 323.50 477.30 322.80C478.10 322.30 479.70 322.20 480.60 322.40C481.20 322.60 481.60 322.90 482.20 322.90M477.50 323.20L477.10 323.30L477.30 322.80M477 323.40L476.50 323.20L476.80 322.90L476.90 322.80L477 322.90M142.40 323.50L142 323.60L142.20 323.10M139.90 324.30L141.90 323.20M475.90 323.40L475.30 323.90L475.40 324L476.40 323.10M476.50 323.40L476.10 323.70M484.30 323.40L486.40 324.50M141.40 323.50L141.90 323.70M150.10 323.50L152.40 325.50M475.30 324L473.70 325.40M142.50 324.70C144 324.50 145.70 325 147.10 325.70C147.40 325.80 148.50 326.30 148.40 326.80C148.20 327.20 147.40 327.20 147.10 327.30C145.90 327.60 144.80 328.20 143.80 328.80C142.30 329.70 141.50 331.10 140.40 332.30C139.60 333.10 138.70 333.80 137.90 334.70C137.30 335.40 136.50 336.80 135.70 337.20C135.40 337.40 135.10 337.10 134.70 337.30C133.40 337.90 133.70 340.80 132.20 341C131.50 341.10 130.90 340.20 130.60 339.60C129.80 337.90 130.40 335.90 131.10 334.20C132.70 330.90 135.70 328.10 138.80 326.30C140 325.70 141.20 325 142.50 324.70M491.20 338L491.10 337.60L491.20 337.50L491.60 337.70L491.60 337.80L491.10 338.70C490.60 338.40 490.50 337.90 490.30 337.50C489.80 336.80 489.20 336.20 488.70 335.60C486.50 333.10 484.20 330.50 481.50 328.60C480.50 327.90 479.50 327.30 478.30 327.10C478 327.10 477.60 327 477.70 326.60C477.80 326.20 478.40 325.90 478.70 325.80C479.80 325.20 481.20 324.70 482.40 324.70C484.10 324.70 485.60 325.50 487 326.30C489.70 328 491.90 329.90 493.90 332.40L494.50 331.90L497 336.10C495.90 336.70 496.90 338.20 497.30 338.90M138.70 324.80C136 327.10 133.20 329 131.40 332.20L131 331.90L130.80 333.20L130.40 332.90L130.30 333L130.30 333.10C130.80 333.80 129.70 336.20 129.10 336.80L129.10 336L129.50 336.30M366.80 324.80L366.60 325.10M270.50 324.90L269 325.20L268.90 325.30L269.30 325.70C267.10 326.90 264.50 328 262.10 328.60C261.10 328.90 260 328.70 259 329.10M261.40 325L261.80 325M367.40 325.20L367.70 325.40M260.10 328.70C261 327.90 262.30 327.50 263.40 327.10C265.20 326.50 267 325.60 268.90 325.30M269.60 325.40L269.40 325.70M473.20 325.60L473.50 325.90M152.60 326.10L153.50 327.40L156.50 329.10L159.80 332.10L163.40 334.40L165.80 336.80L166.30 337.70L165.30 338L162.80 338.40C163.50 339.10 165.40 338.70 166.40 339C168.20 339.40 169.70 340.60 171 341.80C171.50 342.30 171.90 342.80 172.40 343.30C172.50 343.50 172.90 343.80 172.60 344C172.30 344.30 171.40 344.10 171 344.10C169.60 344.10 168.60 344.40 167.30 344.70M489.60 326.10L494.50 331.80M284.90 327.20C278.10 333 272.10 339.80 268.20 347.90C266.60 351.20 265.20 355.60 265.80 359.30C265.90 360 266.40 360.50 266.60 361.20L266.60 361.30C266.40 361.20 265.90 361.10 266.20 360.80M344 327.60L346.50 329.20L350.20 331.80L357.10 337L357.30 336.80L356.80 335.90M282.90 328.80C282.90 328.40 283 328.40 283.40 328.30M282.70 328.50L282.50 328.70L282.70 328.90L282.60 329L282.50 328.90M270.60 337.10C275 335.10 278.20 330.90 282.50 328.70M282.10 329L282.10 329.20M345.80 329L346.20 329.20L346.30 329.30L346.40 329.40L346.20 329.70C348.80 331.70 350.90 334.40 352.80 336.90C355.30 340 357.60 343 359.40 346.60C360.30 348.40 361.90 350.70 362 352.80C362.10 354.10 362.30 356.70 361.40 357.80C360.80 358.70 357.90 357.80 358.30 359.80C358.40 360.60 359 361.30 359.40 362C359.70 362.60 359.80 363.40 360.10 364C360.60 364.90 361.40 365.50 361.80 366.40C362.80 368.60 362.60 371.70 362 374C361.70 375.40 361.20 377.50 359.70 378.10L359.60 378C359.70 377.50 359.70 377.20 359.30 376.90C359.20 377.10 359 377.20 358.90 377.40C357.70 378.60 357.70 377.30 357.30 376.50L357.20 376.50L356.80 377C356 376.30 356.20 374.80 356.10 373.80C355.80 371.80 355.60 368.70 356.50 366.80C357 365.90 357.90 365.10 358.60 364.30M346.40 329.20L346.20 329.40M139.80 342.90C139 343.90 138.40 344.90 137.80 346C137.60 346.40 137.30 347.10 136.80 347.20C135.90 347.50 135.10 346.20 134.90 345.50C134.20 343.40 134.80 341.10 135.80 339.20C137.70 335.50 141.50 332.40 145.20 330.60C147.60 329.40 149.70 329.50 152.20 330.40C152.60 330.50 154.40 331 154.30 331.60C154.20 332.20 153 332.40 152.50 332.60C150.90 333.10 149.10 333.90 147.80 335.10C146.90 336 146.20 337.20 145.30 338.20C141.90 341.90 139 345.50 138.60 350.70C138.50 352.90 139.40 353.90 141.10 355.10C141.50 355.40 142.40 356.20 142.90 356C143.60 355.70 143.80 354.20 144.20 353.60C145 354.50 143.90 356.40 143.80 357.50C143.60 359.40 145.40 360.70 146.70 361.80C147.10 362.10 147.70 362.80 148.30 362.80C148.80 362.80 149 362.10 149.10 361.70C149.40 360.80 149.60 359.90 149.90 359C150.20 358.40 150.70 357.80 150.80 357.10C150.80 356.80 151.50 355.70 151.20 355.50C150.70 355.20 149.90 356.70 149.70 357C149.30 357.60 149 358.30 148.80 359C148.60 359.40 148.60 360 148.30 360.30C147.60 361 145.70 359.40 145.40 358.80C144.30 357 145.30 354.50 145.90 352.70C147.40 348.40 151.10 345.30 154.90 342.90C156.40 342 158.20 340.90 160 340.70C161.70 340.50 163.70 341.10 165.20 342C166 342.50 166.70 343.50 167.70 343.60M346.50 329.60L346.70 329.60L346.50 329.60M486.50 343.80L486.40 343.90C486.50 344.70 487.10 345.40 486.50 346.10C485.60 344.80 485 343.40 484.10 342.10C482.70 340.30 481 338.80 479.50 337.10C478.60 336.10 478.40 335.10 477.20 334.40C475.90 333.50 474.50 332.80 473 332.30C472.70 332.20 471.70 332.20 471.70 331.70C471.70 331.10 473 330.60 473.50 330.40C475.60 329.60 477.60 329.40 479.70 330.20C484 331.90 488.90 335.70 490.60 340.10C491.30 341.70 491.90 343.90 491.30 345.60C491 346.40 490 347.40 489 347.20C488.20 346.90 488.10 346.20 487.90 345.50C487.70 344.80 487.10 344.10 486.50 343.80M131.10 331.90L131.60 331.50M130.90 332.20C131.10 332.40 131.20 332.40 131.40 332.20M494.70 332.20L494.10 332.80L494.20 332.90L494.30 333L494.90 332.50M130.60 332.50L131 333M131.30 332.50L131.10 332.70M493.90 332.50L494.10 332.70M130.50 332.70L130.60 332.90M266.70 332.80L265.20 333.60C264.80 332.90 263.70 333.40 263 333.50C261.10 334 258.90 334.90 257 334.90M265.10 333.10L265.70 333.20M340.10 333.10L341 335.10L341.10 335.20L341.50 334.80L341.10 334.50M130.20 333.20L130.60 333.70M494.40 333.20C495.20 335.20 496.20 337.20 495.40 339.40C495.20 340.10 494.50 341.40 493.60 341C493.10 340.80 493 340.20 492.80 339.80C492.50 339 492.20 338.30 491.60 337.70M130.80 333.30L130.70 333.40M130.10 333.40L130.50 333.90M287.90 333.40C287.80 335.20 286.80 337 286.30 338.70C285.90 340.20 285.50 341.80 285.10 343.30C284.80 344.30 284.60 345.50 283.90 346.40C283.40 347.10 282.40 347.40 281.70 347.90C281.10 348.40 280.50 349 279.80 349.20L279.90 348.70L280.20 348.80L280.30 348.90M280 348.60C280.20 347.30 281 345.90 281.60 344.70C282.70 342.10 284 339.60 285.30 337.10C286 336 286.60 334.20 287.80 333.50M130 333.60L130.40 334.10M258.50 334.80C259.10 335.10 259.80 335 260.50 334.90C262.10 334.60 263.60 334.20 265.10 333.70M129.90 333.80L130.30 334.30M287.40 333.90L287.80 334.30M129.80 334L130.20 334.50M272.90 334.10L271.20 336.50L271.30 336.60L271.40 336.50L271.30 336.40L270.90 336.90M355.50 334.10L356.40 335.10M129.70 334.20L130.10 334.70M272.40 334.70L272.10 334.40L272.60 334.30M129.60 334.40L130 335M250.80 335.90C250.40 335.90 249.80 336.20 250.40 336.60C251.30 337.20 252.90 337 253.90 337.10C257.30 337.50 261.10 337.50 264.60 337.30C267.50 337.10 269.40 335.10 272.10 334.40M144.60 353.90L144.70 351.90L145.30 349.50L145.20 349.40C144.20 350 143.80 351 143.40 352C143.20 352.50 142.90 353.30 142.30 353.50C141.80 353.60 141.30 353.30 140.90 353C139.20 351.90 139.50 350.20 139.80 348.50C140.70 344.10 143.90 340.70 147.40 338.10C150.20 335.90 153.40 334 157 335C157.90 335.30 158.90 335.60 159.70 336.10C160 336.30 160.50 336.60 160.40 337C160.10 337.70 159 337.80 158.40 338C156.70 338.70 155.10 339.70 153.60 340.80C154.20 341.60 155 340.70 155.70 341.30L155.80 341.20L155.80 341.10L155.50 340.80L156.10 340.40L156.50 340.90L156.60 340.80L156.60 340.70L156.40 340.40L157 340L157.40 340.50L157.50 340.40L157.50 340.30L157.30 340L157.70 339.70L157.90 340.20L158 340.20L158.10 340.20L158.20 340.10L158 339.70L158.70 339.30L159.10 339.80L159.20 339.70L159.20 339.60L159 339.30L159.10 339.20L159.20 339.10L159.70 339.60L159.80 339.60L159.90 339.50L159.30 339.20M472.70 341.30C471.70 339.80 469.40 338.80 467.80 338.20C467.20 337.90 465.70 337.80 465.40 337.10C465 336.40 467 335.70 467.50 335.50C469.90 334.50 472.10 334.40 474.50 335.60C479 337.70 483.70 341.70 485.70 346.40C486.40 348.30 487.30 351.40 485.40 352.80C484.90 353.20 484.20 353.60 483.60 353.50C483 353.30 482.70 352.40 482.50 351.90C482.20 350.90 481.70 349.90 480.80 349.40L480.70 349.50L480.80 349.90L480.90 350L481 349.90L481.10 349.80L481.20 349.70M129.50 334.70L129.90 335.20M129.40 334.90L129.80 335.50M319.30 335C319.50 335.90 320.10 336.30 320.60 336.90C321.20 337.60 322 338.70 322.90 339.10C323.50 339.40 324.70 339.10 325.40 339.10C327.90 339.30 330.40 339.20 332.80 340C334.10 340.50 335.40 341.10 336.70 341.70C337.10 341.90 337.80 342.30 338.20 341.90C338.50 341.50 338.30 341 338.20 340.60C338 339.60 337.60 338.50 337.30 337.50C337.20 337.20 337.10 336.40 336.70 336.40C336.20 336.30 335.50 336.80 335.10 337C334.30 337.30 333.40 337.50 332.60 337.60C329.60 337.90 326 337.60 323.10 338.70C321.90 339.10 320.70 340 319.60 340.60C319.30 339.50 319.30 337.10 319.60 336M341.60 335L341.80 335.30L341.40 335.70L341.50 335.30M129.30 335.20L129.60 335.70M253.30 335.40L255.40 335.40M325.80 335.30L327.20 335.90M341.10 335.30L341.50 335.30M129.20 335.50L129.60 336M341.90 335.50C343.80 339 345.60 342.60 347.10 346.30C347.90 348.20 348.20 350.80 349.40 352.50C350 353.40 352.60 353.30 353.20 352.30C353.80 351.20 353.30 349.30 353.10 348.10C352.80 346.70 352.20 345.40 352 344M496.60 335.50L496.50 336.20M326.20 335.60L325.70 335.80M129.10 335.70L129.10 336M341.40 335.70C341.70 337.50 342.90 339.30 343.60 341C344.80 344.20 345.90 347.60 346.40 351C346.60 352.30 346.90 353.60 347 354.90C347 355.20 347 356.10 347.40 356.30C347.70 356.40 348.20 356 348.40 355.90C349.30 355.40 350.20 355.10 351.10 354.70C352.30 354.30 354.70 354 355.40 352.90C355.90 352.30 355.50 351.20 355.30 350.50C354.60 348.50 353.70 346.40 352.60 344.70L352.20 345M267.70 339.30C267.10 339 266.40 339.10 265.70 339.10L261.70 339.10C257.70 339.10 253.90 338.90 250 337.90C248.70 337.60 246.40 337.30 245.50 336.30C245.90 336.10 246.30 336.10 246.80 336.10C247.70 336 249.30 335.60 250.10 336M497.10 336.20C497.20 337 497.50 337.80 497.10 338.50M245.20 336.30L245.50 336.30M129.10 336.80L128.60 339.60M357.30 336.90L357.50 337.10M163 338.80C162.60 338.90 162.40 338.80 162.10 338.50L162.70 338.30M162.30 338.90L161.50 338.60L161.70 338.40L162 338.40M161.80 339C161.30 339.20 161 339.20 160.60 338.80L161.40 338.50M160.90 339.20L160.20 338.90L160.30 338.80L160.40 338.80L160.60 338.80M323.50 338.70L323.50 339M160.50 339.30L159.90 339L160 338.90L160.20 338.90M465.30 338.80L464.90 339.20M159.60 339.10L159.90 339M465.70 338.90L465.30 339.30M466.10 339L465.70 339.40M466.40 339.10L466 339.50M158.90 339.30L159 339.30M466.60 339.30L466.40 339.60M466.90 339.40L466.70 339.70M159.90 339.50L160.20 339.40M467.20 339.50L467 339.80M158.60 339.60L159 339.80M467.50 339.60L467.30 339.90M467.90 339.60L467.50 340M157.90 339.70L158 339.70M158.30 339.70L158.70 339.90M159.20 339.70L159.60 339.60M468.30 339.70L467.90 340.10M468.40 339.80L468.70 339.90L468.10 340.20M468.80 339.90L468.40 340.30M157.20 340L157.30 340M157.60 340L157.80 340.30M469 340L469.40 340.20L468.70 340.40M300.10 340.30C298.80 341.40 296.50 341.70 295 342.60C294.60 342.90 293.90 343.40 293.60 342.70C293.20 341.70 294.30 341 295 340.70C296.90 340 299 340.20 301 340.20M496.90 340.10C495.90 341.10 494.90 342.70 493.70 343.30L493.60 343.20L493.50 343.10L494.10 342.90M469 340.20L468.80 340.50M469.50 340.20L469.10 340.60M156.90 340.30L157.30 340.50M469.70 340.30L469.30 340.70M156.30 340.40L156.40 340.40M156.70 340.40L157 340.60M469.90 340.40L472.40 341.30M470 340.50L469.50 340.80M470.30 340.50L469.70 340.90M155.90 340.60L156.40 340.90M155.70 340.70L156.20 341M462.80 346.80L463.90 346.70L467.10 347.90L467.20 347.80C466.20 346.10 463.30 345.10 461.60 344.30C461.20 344.10 459.50 343.80 459.30 343.40C459.20 342.80 460.60 342.10 461 341.90C463 340.90 465.10 340.40 467.30 341C469.50 341.70 471.50 343 473.30 344.50C476 346.60 478.50 349.10 479.90 352.30C480.70 354.10 482 357.50 480.40 359.10C479.90 359.60 479.20 360.30 478.40 360.10C476.40 359.50 476.80 356 474.70 355.40L474.60 355.50L474.60 355.60L474.70 355.80L475.10 355.60M155.40 340.80L155.50 340.80M153.60 340.90C153.50 341.20 153.50 341.40 153.90 341.30M470 341.10C473.70 342.70 477.30 346.40 479.50 349.70C480.20 350.80 480.60 352.10 481.30 353.20C482 352.30 481 351 480.90 350M365.30 341.20L366.80 341.40M155.60 341.30C152.40 343.60 149.40 345.50 147.10 348.70C146.20 349.90 145.70 351.30 145 352.60M155.60 385.50L156 385.10C154 383.80 152.10 382.80 150.30 381.30C149.30 380.40 148.40 379.20 147.70 378C145.60 374.50 146.20 370.20 149.70 367.80C152.10 366.10 155 365.40 157.70 364.40C160.50 363.30 163.20 361.90 165.50 359.90C168.80 357 171.70 353.80 174.30 350.40C176.10 348.10 177.50 345.30 179.90 343.50C183.70 340.60 189.30 341.50 193 343.90C197.20 346.70 198.50 351.50 198.50 356.30C198.50 357.70 198.50 360.20 197.40 361.30C196.90 361.70 196.20 361 195.80 360.70C194.60 359.80 193.40 358.40 192.10 357.70C191.30 357.30 189.90 357.60 189.10 357.60L181.80 357.60C181 357.60 179.30 357.30 178.60 357.80C178.10 358.10 177.80 358.90 177.40 359.40C176.60 360.50 175.80 361.60 175 362.70C172.50 366 169.80 369.20 167.20 372.40C166.20 373.60 165.20 374.90 164.20 376.10C163.80 376.50 163.20 377.10 163.10 377.60C163 378.20 163.80 378.70 164.20 379C165.40 380.10 166.60 381.20 167.70 382.30C168.10 382.70 169.20 383.50 168.60 384.20C166.50 386.30 162.40 386.80 159.60 386.20C158.60 386 157.60 385.50 156.60 385.30C156.20 385.20 155.80 385.60 155.40 385.40C154 384.90 152.70 384.10 151.20 383.70C147.70 383 144 383.80 140.50 383.30C133.40 382.20 126.20 379.40 121.10 374.10C119.10 372 117.70 369.70 116.20 367.20L116.10 367.20C115.50 368 116.60 369.50 117.10 370.30C118.80 373.10 121 375.60 123.40 377.80C127.90 381.90 133.90 384.60 139.70 386.30C142.50 387.10 145.40 387.80 148.40 387.80C151.10 387.80 154.50 388 156.90 386.30L155.90 385.60M470.80 384.60L471.40 384.90L471.30 385L471.20 385.10C470.30 384.30 468.30 385.60 467.20 385.90C464.40 386.60 461.80 386.70 459.20 385.30C458.60 385 457.70 384.70 457.30 384.10C456.90 383.50 457.90 382.70 458.30 382.30C459.40 381.20 460.60 380.10 461.80 379.10C462.10 378.80 462.90 378.30 462.90 377.80C462.90 377.30 462.30 376.80 462 376.40L459.30 373C456.60 369.60 453.80 366.20 451.20 362.80C450.40 361.70 449.50 360.70 448.70 359.60C448.40 359.10 448 358.40 447.50 358.10C446.60 357.50 444.90 357.60 443.80 357.60C441.50 357.60 439.10 357.60 436.80 357.70C435.80 357.70 434.50 357.60 433.50 358.10C432.30 358.60 431.10 359.90 430.10 360.70C429.80 361 429.10 361.70 428.70 361.30C427.30 360 427.60 356.80 427.60 355.10C427.60 353.40 427.80 351.60 428.40 349.90C430 345.20 434.20 342.20 439.10 341.70C442 341.40 445.10 342.50 447.20 344.50C449.20 346.40 450.70 349.10 452.30 351.30C454.10 353.80 456.20 356.10 458.50 358.10C460.30 359.70 462.20 361.10 464.20 362.40C464.80 362.80 465.90 363.60 466.60 363.20L466.40 363.50M338.50 341.90C338.40 342.20 338.30 342.20 338 342.20M374.10 342.40L374.20 342.40M131.70 342.60C132.20 342.80 133 343 133.30 343.50C133.80 344.30 133.40 345.60 133.80 346.60C134.30 347.80 135.50 348.50 136.50 349.20C136.80 349.40 137.30 350 137.70 349.80C138.20 349.50 138.40 347.90 138.60 347.40L138.70 347.30L138.80 347.40L138.90 347.50L139 347.60L139.10 347.70M474.80 355.90C475 357.10 475.90 358.20 476.20 359.40C476.50 360.30 476.50 361.60 477.30 362.30C477.90 362.70 478.50 362.40 479 362C480 361.30 481.40 360.20 481.80 359C482.20 357.80 481.90 356.30 481.70 355.10C481.60 354.40 481.20 353.80 481.70 353.20L481.80 353.20C482.10 353.80 482.30 355.60 482.90 356C483.40 356.20 484 355.70 484.30 355.40C485.40 354.70 486.90 353.60 487.30 352.30C487.70 351.10 487 349.60 487.70 348.60C487.90 348.80 488.10 349.80 488.40 349.80C488.80 349.80 489.30 349.20 489.60 349C490.60 348.10 492 347.20 492.40 345.80C492.70 344.90 492.20 343.20 493.50 343.10M139.70 343.30C139.70 344.20 139.10 345.10 139.70 345.90M494.10 343.30C495.70 345.50 498.90 345.30 501.20 344.60C501.90 344.40 503.30 343.50 504.10 343.70C504.60 343.90 505.10 344.90 505.40 345.40C507.80 349.50 509.20 354.90 509.20 359.60C509.20 361.30 509 362.90 508.60 364.60C508.40 365.40 507.90 366.20 508.50 366.90M166.90 343.40C166.20 343.90 165.30 343.90 164.50 344.20C163.20 344.70 161.90 345.50 160.70 346.20C160 346.60 159.10 347.10 158.70 347.90L159.10 348L159.20 347.90L158.90 347.50M486.30 343.50L486.40 343.70M139.20 343.60L139.60 344M183.20 343.70C184.20 343.60 185.50 343.60 186.20 344.40C186.80 345.20 186.60 346.70 186.90 347.60C187.50 349.50 188.70 351.20 190.10 352.70C190.40 353 192.50 354.90 191.50 355.20C190.20 355.50 188.70 355.30 187.40 355.20C184.70 355.10 181.70 355 179.10 355.80C178.10 356.10 177 356.50 176 356.80C175.70 356.90 175.10 357.20 174.70 357C174.50 356.80 174.70 356.30 174.80 356C175.10 355 175.40 354 175.80 353C177.10 349.40 178.80 344.50 183.20 343.70M440 344C440.40 343.70 441.70 343.90 442.30 343.90C446.60 343.90 448.90 349 450.10 352.50C450.50 353.50 450.80 354.60 451 355.70C451.10 356 451.20 356.70 450.90 356.90C450.40 357.20 449.40 356.70 448.90 356.60C447.20 356 445.70 355.40 443.90 355.20C441.60 355 439.30 355.20 437 355.20C436.20 355.20 434.90 355.40 434.20 354.90C433.50 354.30 435 353.50 435.40 353.20C437.20 351.80 438.40 349.50 439.10 347.40C439.30 346.60 439.50 345.80 439.60 345C439.70 344.70 439.70 344.20 440 344M276.20 344.10C275.70 346 275.40 347.80 274.50 349.60C274.30 350.10 273.80 351.10 273.10 351C272.50 350.80 273.20 349.60 273.30 349.30C273.90 347.80 274.70 345.60 275.90 344.50M352.10 344.20L352.60 344.60M167.90 344.60C168.60 345 169.40 344.70 170.10 344.70C171.40 344.70 172.70 344.80 174 345.10C174.60 345.20 175.50 345.30 175.80 345.90C176.10 346.20 175.80 346.50 175.60 346.70C175.20 347.20 174.30 348.40 173.60 348.50C172.90 348.60 171.60 347.70 170.90 347.40C169.10 346.70 167.40 346.40 165.60 346.90C161 348.30 156.50 352.20 153.90 356.10C152.90 357.50 152 359.10 151.70 360.80C151.40 362 151.50 363.30 151.20 364.50C151.10 364.80 150.80 365.80 150.40 365.40C150.10 365.10 150.20 364.60 150.20 364.30C150.20 363.30 150.40 362.40 150.60 361.40C151.70 357.20 154.30 353.80 157.10 350.70C157.90 349.90 158.80 349.20 159.70 348.60C160.20 348.20 160.80 348 160.40 347.40L160.30 347.50L160.20 347.60L160.30 347.70L160.60 348M457.40 344.60C457 345 456.30 344.90 455.70 344.90C454.40 344.90 453.20 344.80 451.90 345C451.30 345.10 450.20 345.30 450.30 346.10C450.40 347.10 451.90 348.60 452.90 348.30C455.10 347.60 456.70 346.60 459.10 346.80C460.80 346.90 462.50 347.80 464 348.60C467.30 350.60 470.30 353.50 472.50 356.60C473.60 358.10 474.30 359.70 474.50 361.60C474.60 362.90 474.30 364.70 475.50 365.60C476.40 364.10 475.40 361.20 474.90 359.60C473.40 355.80 470.80 352.40 467.60 349.90C466.20 348.80 464.60 348 463.20 347M458.10 344.80L457.30 344.90M275.60 344.90L276 345.30M313.30 359.30C312.50 358.60 312.30 357.20 312 356.20C311.30 353.70 310.70 351.30 310.10 348.80C309.90 348 309.70 347.20 309.60 346.40C309.50 346.10 309.40 345.70 309.70 345.50C310 345.20 310.60 346 310.90 346.20C311.60 347.10 311.90 347.90 312.20 349C312.40 349.40 312.50 349.90 313 350C313.40 350 313.80 349.50 314 349.20C314.60 348.20 314.80 347.10 315.40 346.10C315.60 345.80 316.10 345.10 316.60 345.20C317 345.30 316.90 345.80 316.80 346.10C316.70 346.90 316.50 347.80 316.30 348.60C315.80 351.10 315.20 353.60 314.50 356C314.20 357.10 314 358.40 313.30 359.30M139.20 345.60L139.60 346.20M139.10 345.90L139.50 346.50M487 345.90L486.60 346.40L486.50 346.30L486.50 346.20L486.50 346.10M139 346.20L139.40 346.80M487.10 346.20L486.70 346.70L486.60 346.60L486.60 346.50L486.60 346.40M163.30 346.40L161 347.80L160.70 347.40L160.90 347.20L161.30 347.40M463.10 346.40L462.90 346.90M138.90 346.50L139.30 347.10M463.20 346.50L463.40 346.50M487.20 346.50L486.80 347L486.70 346.90L486.70 346.80L486.70 346.70M138.80 346.80L139.20 347.40M487.30 346.80L487.10 347.50L486.80 347.20L486.80 347M138.70 347.10L138.70 347.30M160.60 347.40L160.70 347.40M466.90 347.40L466.50 347.80M159.20 347.90L160.20 347.60M487.30 347.60C487.60 348 487.60 348.20 487.30 348.60L487.30 347.70M334.40 348.10C334.40 349.20 333.90 350 333.60 351C333 353.50 332.20 356 331.40 358.50C331.10 359.30 330.80 360.10 330.40 360.90C330.20 361.20 329.90 361.70 330.10 362.10C330.20 362.50 330.70 362.50 331.10 362.40C332.20 362.20 333.20 362.10 334.30 362.10C334.60 362.10 335.40 362.20 335.50 361.80C335.60 361.40 335 361.20 334.80 361.10C334.10 360.70 332.70 360.80 332.60 359.90C332.50 359 333 358.10 333.30 357.30C333.90 355.50 334.30 353.70 334.40 351.80C334.40 351 334.60 350.30 334.20 349.60M487.80 348.40L487.80 348.60M487.30 348.60L487.30 348.80M145.40 349.30L145.30 349.40M279.70 349.30L279.20 350.10M144.80 349.70L145.20 350.10M166.30 353.30C166.90 352.70 167.70 352.30 168.40 351.90C168.90 351.60 169.50 351.30 170 351C170.30 350.90 170.60 350.70 170.90 350.60C171.10 350.50 172.40 349.80 172.40 350.50C172.40 351 171.60 351.40 171.20 351.60C170.10 352.20 169 352.80 167.80 353.30C167.20 353.60 166.70 353.90 166.20 353.30C166.10 353.60 166 353.80 166.40 353.90M454 350.30L454.10 350.40L453.70 350.80L453.60 350.70L453.50 350.60L454 350.30M454.10 350.40C456 350.70 459.20 352.30 460.20 354C459.60 354.20 459 353.80 458.40 353.60C457 352.90 454.40 352.20 453.70 350.80M339.60 351.10L340.40 354.20L340.30 358.50M339.60 352.30C339.40 353.50 339.50 355.60 340.20 356.60M144.50 352.40L144.90 353M144.40 352.70L144.80 353.40M294.70 352.70C294.70 353.50 295 354 295.20 354.80C295.50 356.10 295.70 357.50 295.80 358.80C295.90 359.20 296.20 360.60 295.70 360.90C295.20 361.30 294.80 359.80 294.70 359.50C294.50 358.20 294.20 355.40 294.80 354.20M481.80 353L481.80 353.20M144.30 353.10L144.70 353.70M159.30 362.50C159.40 361.50 160.50 360.50 161.20 359.80C163 357.90 164.80 356.20 167 354.70C167.80 354.20 168.50 353.70 169.40 353.40C169.60 353.40 170.10 353.10 170.30 353.40C170.50 353.60 170.10 354 169.90 354.20C169.30 354.70 168.70 355.20 168 355.60C166.20 356.90 164.40 358.20 162.80 359.70C161.80 360.70 160.60 362.20 159.20 362.60M466.50 362.80C463.90 360.20 461.20 357.90 458.20 355.80C457.50 355.30 456.70 354.80 456.10 354.20C455.90 354 455.60 353.70 455.70 353.40C455.80 353.10 456.30 353.30 456.50 353.40C457.30 353.80 458.10 354.30 458.90 354.70C462 356.70 464.60 359.40 466.90 362.30L466.50 362.70L466.50 362.80L466.90 363L466.90 362.40M481.30 353.20L481.30 353.40M144.20 353.40L144.20 353.60M165.70 354L165.90 353.90M285.30 358.10C284.80 357.50 284.90 356.40 284.90 355.60C284.90 355.30 285 354.60 285.50 354.80C285.80 355 285.80 355.60 285.80 355.90C285.80 357 285.20 357.90 285.20 359M425.10 475.90C423.90 475.80 422.60 475.90 421.40 475.70C420.70 475.60 420.10 475.30 419.40 475.20C414.40 474.70 409.50 474.20 404.50 473.50C368.20 468.80 332.70 456.30 299.90 440.40C293.30 437.20 286.60 434.10 280.30 430.40C278.80 429.60 278.30 427.80 276.80 427.10L276.80 428.40L276.70 428.50C274.60 427.70 272.70 426.20 270.80 425.10C266.40 422.70 262.10 420.20 257.80 417.60C240.70 407.70 224.10 396.30 208.30 384.40C202.60 380.10 197 375.60 191.40 371.10C189.90 369.90 188.30 368.60 186.80 367.30C185.80 366.40 184.70 365.40 183.50 364.90C182.90 364.60 182.40 365 181.90 365.40C180.90 366.30 180 367.30 179.10 368.30C176.90 371 174.60 373.60 172.20 376.20C171.20 377.30 169.40 378.90 169.10 380.40C169 381.20 169.90 381.40 170 382.10C170 382.60 169.40 382.60 169.10 382.40C167.80 381.60 166.70 380.20 165.70 379.10C165.40 378.80 164.70 378.20 164.70 377.80C164.70 377.20 165.90 376.20 166.30 375.80C167.90 374 169.50 372.20 171.10 370.40C173.30 367.80 175.60 365.30 177.90 362.80C178.80 361.90 179.80 360.20 180.90 359.60C181.70 359.20 183 359.50 183.80 359.40C185.60 359.20 187.50 359.10 189.30 359C190 359 190.80 358.70 191.50 358.80C192.30 359 193.30 360 194 360.50C195.90 361.90 197.80 363.30 199.70 364.70C206.20 369.50 212.90 374 219.50 378.60C224.30 381.90 229.40 384.70 234.30 387.70C251.40 398.20 269.40 407.60 287.90 415.50C293.80 418 299.70 420.50 305.70 422.90C307.30 423.50 308.80 424.10 310.40 424.80C311.10 425.10 312.10 425.70 312.80 425.60C313.60 425.60 314.50 425.10 315.20 424.80C317.20 424.20 319.10 423.40 321 422.60C327.20 420.10 333.50 417.60 339.60 414.80C363 404.10 385.90 392.20 407.30 378C413.50 373.90 419.60 369.70 425.60 365.30C427.40 364 429.10 362.60 430.90 361.30C432.10 360.40 433.30 359.50 434.70 359.10C437 358.60 439.60 359.20 441.90 359.40C442.80 359.50 444.20 359.30 445 359.70C446.30 360.30 447.50 362.30 448.40 363.30C450.80 366 453.30 368.60 455.60 371.30C457 372.90 458.40 374.50 459.80 376C460.20 376.40 461.30 377.30 461.30 377.90C461.30 378.40 460.40 379 460 379.30C458.90 380.30 457.80 381.40 456.80 382.40L456.40 382C456.40 382.30 456.40 382.40 456.70 382.40M362 359.30C363 359.10 363.40 360.80 363.50 361.50C364 364.20 364.40 367.10 364.40 369.80C364.40 370.50 364.70 372.60 363.70 372.70C363.20 372.80 363.10 372.20 363.10 371.90C362.90 371 363.10 370 363 369.10C362.90 367.30 362.30 365.80 361.90 364.10C361.80 363.60 362.20 363 362 362.60C361.70 361.90 360.30 361.70 360.20 361C360.10 360.40 361.50 359.30 362 359.30M265.20 367.30C265.40 366.60 265.90 366.10 266.20 365.40C266.50 364.80 266.90 363.50 267.60 363.20C268.60 362.90 270.20 365.10 270.50 365.80C271 366.80 270.90 368 271 369.10C271.10 370.90 271.20 372.70 271.20 374.50C271.20 375.10 271.50 377 270.80 377.30C270.40 377.50 270.20 376.80 269.90 376.60C269.60 376.50 269.30 376.90 269 377C268.20 377.20 267.50 376.70 267.10 376.10C266.80 375.60 266.70 374.90 266.40 374.40C266.20 374 265.70 373.90 265.50 373.50C265.20 372.90 265.20 372.20 264.80 371.70C264.60 371.90 264.40 372.30 264.10 372.30C263.50 372.30 263.20 370.60 263.10 370.20C262.80 367.90 263.40 365.30 263.70 363C263.80 362.40 263.90 361.10 264.40 360.70C264.90 360.30 265.60 360.90 266.10 360.90M266.70 361.40C267.50 361.80 268.20 362.50 269.10 362.90C269.70 363.10 270.40 363.10 270.90 363.50C271.80 364.20 271.90 365.40 273.10 365.70C275.10 366.20 277.30 365.90 279.30 366C284.20 366.20 289.60 366.60 294.40 365.70C297.40 365.10 300.10 363.20 303.20 363.20C304.60 363.20 306 363.50 307.40 363.60C309.80 363.80 312.30 363.70 314.70 363.70C318.10 363.70 321.50 363.20 324.90 363.50C327 363.70 328.70 365.30 330.80 365.70C334.40 366.20 338.50 366.40 342.10 366.20C343.60 366.10 345 365.80 346.50 365.70C348.30 365.60 350 366.30 351.80 366.20C353.20 366.10 354.70 365.80 356 365.30C356.80 365 357.50 364.50 358.30 364.40M267 361.60C266.90 362.90 265.20 364.60 266.10 365.70M157.30 361.90C157.50 362.30 157.70 363.90 156.80 363.80C156.10 363.70 157.10 362.10 157.30 361.90M159.50 362L159.70 362M468.60 362C469.40 362.40 469.60 363.30 469.20 364C468.60 363.50 468.40 362.70 468.60 362M466.90 363L466.70 363.20M466.70 363.70C467.50 364 468.50 364.70 469.20 364.10M315.70 376C316.60 375.50 316.50 373 316.50 372C315.90 372.10 315.20 373.40 314.70 372.80C314.20 372.40 314.30 371.30 314.30 370.70C314.50 369.20 314.70 367.70 315.10 366.20C315.30 365.50 315.50 364.70 316.30 364.40C318.40 363.70 321.70 364.30 323.60 365.20C324.20 365.50 324.60 366 325.20 366.40C325.60 366.60 326.10 366.60 326.50 366.90C326.70 367.10 326.90 367.70 327.20 367.70C327.70 367.70 328 366.50 328.50 367C329.20 367.80 329.20 369.70 329.40 370.70C329.80 373.30 329.90 375.90 329.70 378.50C329.60 379.70 329.70 381.10 329.30 382.30C329 383.40 327.90 383.50 326.90 383.50C326.60 383.50 326 383.30 325.80 383.60C325 384.60 325.80 386.20 325.20 387.20C325 387.50 324.60 387.40 324.30 387.40C323.50 387.40 322.60 387.50 321.80 387.40C319.60 387.30 316.80 387.10 315.20 385.20C314.60 384.40 314.20 383.50 314 382.50C313.50 380.70 313.40 378.60 313.80 376.80C313.90 376.30 314.30 374.30 315.10 374.70C315.50 374.90 315.60 375.60 315.70 376M376.70 443.50C377.80 443.40 378.90 442.20 379.80 441.50C382.10 439.90 384.40 438.30 386.60 436.70C392.60 432.30 398.70 427.90 404.60 423.40C407.30 421.30 410.50 419.40 412.70 416.90C413.80 415.60 413.70 413.40 413.90 411.80C414 411.30 413.90 410.20 414.40 409.80C414.80 409.40 415.10 410.50 415.10 410.70C415.40 411.60 415.50 414.20 417 413.60C418.10 413.10 419 412.10 419.90 411.40C421.30 410.30 422.60 409.20 424 408.10C428.70 404.20 433.60 400.50 438.10 396.40C437.50 395.80 436.40 395.30 436.10 394.40C437.10 394.20 438 395.10 439 394.80C440.60 394.40 442 392.90 443.20 391.80C445.80 389.70 448.40 387.50 450.90 385.20C452 384.20 453.20 383.30 454.20 382.20C454.60 381.70 455.20 381.20 455.10 380.50C455 379.60 453.90 379 453.30 378.50C451.60 377.10 450 375.60 448.40 374.10C447.10 372.90 445.90 371.80 444.70 370.60C444.30 370.20 443.70 369.30 443.10 369.20C442.60 369.10 442 369.80 441.70 370.10C440.50 371 439.40 372 438.20 372.90C433.30 376.60 428.60 380.50 423.60 384.10C404.70 397.90 385.10 410.70 364.90 422.50C358.80 426.10 352.70 429.70 346.40 432.80C344.70 433.70 341.30 435.90 339.40 434.50C338.80 434 340.10 433.40 340.40 433.30C341.90 432.40 343.40 431.60 344.90 430.90C351.50 427.50 357.90 423.70 364.30 419.90C382.70 409.10 400.60 397.20 417.70 384.40C420.10 382.60 422.70 380.80 424.80 378.50C425.80 377.40 425.90 375.90 427.10 375C427.40 374.70 428 374.20 428.50 374.30C429 374.40 429.20 375.10 429.80 374.90C431.10 374.50 432.40 372.90 433.40 372.10C435.40 370.40 437.40 368.70 439.40 367.10C440.30 366.30 441.30 365.10 442.50 364.80C443.10 364.50 443.60 365.10 444 365.50C445 366.40 446 367.40 446.80 368.40C449.20 371.10 451.70 373.70 454 376.40C454.90 377.40 456.50 378.80 456.80 380.10C456.90 380.70 456.50 381.40 456.40 382M469 364.60C472 365.60 475.60 366.60 477.80 369C480.60 372.10 479.60 377 477.20 380C475.80 381.60 473.80 382.90 472 384L472 384.10C472.70 384.60 473.60 384 474.30 383.80C475.80 383.40 477.60 383.40 479.20 383.50C485.40 383.80 491.50 382.40 497.10 379.60C499.20 378.60 501.20 377.50 502.90 376C504.80 374.30 506.50 372.40 508 370.30C508.70 369.30 509.20 368.10 510 367.10C510.60 367.90 509.70 369.10 509.20 369.90C507.80 372.30 506 374.40 504 376.30C497.80 382.40 489.20 386.40 480.60 387.50C477.80 387.80 475.10 387.90 472.30 387.50C471.70 387.40 469.50 387.10 469.60 386.30C469.70 385.70 470.70 385.40 471.10 385.10M297.70 368.40C298.40 366.90 301.50 366.10 303 365.60C305.10 364.90 308.30 364.30 310.10 366.10C311 367 311 369.10 311.10 370.40C311.30 373.40 311.70 376.30 311.70 379.30C311.70 380.50 311.90 381.90 311.40 383C311 383.70 309.50 385.60 308.50 385.40C307.10 385.10 306.40 383.10 306 382C305.40 382.30 305.20 382.90 304.80 383.40C304.30 383.90 303.70 384.20 303.40 384.80C303.10 385.20 303.10 386 302.80 386.30C302.40 386.70 301.60 386.30 301.20 386.20C300.20 386 299.10 385.80 298.10 385.90C297.60 386 296.50 386.50 296 386.30C295.20 386.10 295.50 383.50 295.50 382.80C295.50 380.10 295.90 377.30 296.30 374.60C296.40 373.50 296.40 372.10 297.10 371.20L297.70 375C298.40 374.10 298.30 372.70 298.80 371.60C299.40 370.10 300.50 369.20 301.70 368.20C301.90 368 303.30 366.90 302.80 366.70C302.40 366.50 301.90 366.80 301.60 366.90C300.60 367.30 298.60 369.10 297.70 368.40L297.90 368.90M464.20 365.10C464.40 364.90 465.10 365.10 465.40 365.10C466.50 365.30 467.60 365.40 468.70 365.70C471.10 366.30 473.50 367.30 475.40 368.90C476.10 369.50 476.80 370.10 477.20 370.90C477.60 371.80 477.50 372.90 477.50 373.90C477.50 375.20 477.40 376.90 476.30 377.70C475.40 378.50 474.10 378.70 473 378.80C471.30 379.10 469.50 379.30 467.80 378.70C465.70 378 464.20 376.10 462.80 374.50C462 373.50 460.60 371.80 460.60 370.40C460.60 369.60 461.70 370.10 462.20 369.90C462.90 369.60 463.40 368.90 463.70 368.30C464 367.60 464 366.90 464 366.10C464 365.80 463.90 365.30 464.20 365.10M160.60 365.10C162.80 364.90 161.50 367.60 162.50 368.90C162.90 369.40 163.50 369.60 164.10 369.70C164.50 369.70 165.20 369.70 165.30 370.10C165.70 371 164.60 372.50 164.10 373.20C162.30 375.80 160.20 378.40 156.90 378.80C154.80 379 151.90 379.10 150 378C148 376.80 148 372 149.20 370.30C151.70 366.80 156.60 365.70 160.60 365.10M265.60 365.40L266 366M265.50 365.70L265.80 366.20M265.40 366L265.80 366.50M510.60 366.10L510 367.10M115.40 366.20L115.60 367.20L115.70 367.30L116.10 366.90L115.70 366.60M265.30 366.20L265.20 366.70M508 366.60L508.40 367.20M118.10 366.80L117.70 367.30L117.60 367.20L117.60 367.10L117.60 367M510.50 366.80L510.40 367.40M507.90 366.90L508.30 367.50M118.20 367.10L117.80 367.60L117.70 367.50L117.70 367.40L117.70 367.30M335.20 381.40C334.60 382.20 334.70 383.20 334.50 384.20C334.50 384.60 334.60 385.20 334.20 385.40C333.60 385.70 331.50 384.60 331.40 384C331.30 383.10 331.50 382.10 331.50 381.20C331.50 378.20 331.80 375.10 331.80 372.10C331.80 371 331.70 368.40 332.50 367.50C333.30 366.60 335.40 367.50 336.10 368.20C336.30 368.50 336.40 369 336.70 369.20C337.20 369.40 337.60 368.60 338 369C338.70 369.60 338.90 371.30 339.10 372.20C339.80 374.90 340.60 377.60 340.80 380.40C340.90 381.30 341.10 382.40 340.70 383.30C340.10 384.40 339 383.60 338.10 383.70C337.20 383.90 337.10 385 336.30 385.30C335.90 385.40 335.70 384.70 335.70 384.40C335.40 383.40 335.70 382.30 335.20 381.40M507.80 367.20L508.20 367.80M509.90 367.30L510.30 367.70M115.70 367.40L115.80 367.50M118.30 367.50L117.80 367.70M507.70 367.50L507.80 368.10M118.40 367.60L118.70 368.80M349.30 373.80C349.30 375.70 348.60 377.70 348 379.50C347.30 381.50 346.40 383.50 345.20 385.30C344.90 385.70 344.30 387 343.60 386.80C343.30 386.70 343.30 386.10 343.20 385.80C343 384.70 342.90 383.70 342.80 382.60C342.60 379.20 341.90 375.80 341.30 372.40C341.10 371.30 340.30 369.30 340.60 368.20C340.70 367.70 341.60 367.70 342 367.70C343.10 367.50 346.10 367.40 346.80 368.50C347.60 369.80 346.30 371.60 347 372.90C347.90 372.20 347.80 370.30 347.90 369.20C348 368.80 348 368.10 348.30 367.90C348.60 367.60 348.90 368.10 349 368.30C349.30 369 349.40 369.90 349.40 370.60C349.40 371.50 349.30 372.60 349.40 373.40C349.50 373.80 349.80 374 349.90 374.40C350 375.90 349.30 377.70 349 379.20C348.90 379.90 348.20 381.50 349.40 381.60C351.30 381.80 354.40 380.70 355.10 378.70C355.70 377.10 355.30 375.30 355.20 373.60C355.10 372.30 355.30 370.30 354.60 369.10C354 368.20 352.70 368.20 351.70 368.20C351.40 368.20 350.90 368.10 350.70 368.40C350.40 368.70 350.40 369.60 350.40 370.10C350.30 371.40 350.30 372.80 349.90 374M277.90 379.10L278 378.40L278.40 378.70C278.20 379 277.90 379.30 277.90 379.70C277.90 380.20 278.20 381 277.70 381.40C277.30 381.80 276.80 381.10 276.50 381C276.10 380.80 275.70 381 275.30 380.90C274.60 380.80 274.10 380.30 273.60 379.90C271.20 377.60 272 373.10 272.40 370.10C272.50 369.50 272.60 368.70 273 368.20C273.40 367.70 275.10 367.50 275.70 367.80C276.10 368.10 275.70 368.50 275.40 368.70C274.50 369.40 274.20 370.50 275.40 371.10C275.80 370.20 275.90 370.10 276.80 370.50C277 370.10 277 368.90 277.40 368.70C277.80 368.60 278.10 369.20 278.20 369.50C278.50 370.50 278.80 371.60 278.80 372.60M278.80 371.30C279.30 370.40 279.20 369.30 280 368.50C280.60 368 281.20 368.40 281.90 368.30C283.40 368.10 285.40 367.30 285.90 369.40C286.30 370.90 285 372.40 284.40 373.80C283.50 376.40 282.50 379.60 282.50 382.40C282.50 383.50 282.70 384.70 282.90 385.80C283 386.60 283.30 387.40 282.90 388.10C281.90 387.50 281.50 386.50 281 385.50C279.90 383.40 279.40 381.10 278.40 378.90M117.90 367.90L118.30 368.10M293.20 368.70L292.80 371.10L292.80 374.10M293.10 370.60C293.90 371.50 293.80 373.10 293.80 374.20C293.80 376.90 294.30 379.80 293.90 382.50C293.80 383.40 294.20 385.20 293.50 385.80C293.20 386.20 292.20 385.90 291.80 385.80C290.30 385.60 288.80 385.10 287.30 384.90C286.70 384.80 286.10 384.90 285.90 384.20C285.40 382.20 287 379.90 287.10 377.90L287 377.80L285.70 378.80C285.50 377.80 286 376.50 286.30 375.60C286.80 373.70 287.30 371.10 288.90 369.80C289.60 369.20 291.10 368.80 292 369.30C292.50 369.60 292.60 370.20 292.90 370.60M190 394.10L190.40 393.90L190.60 394.10L190.50 394.30L190.40 394.40L190.30 394.40C189.10 393.50 187.60 395.50 186.20 394.80C184.80 394.10 183.60 392.70 182.40 391.60C179.80 389.40 177.20 387 174.70 384.70C173.80 383.90 173 383.10 172.10 382.30C171.70 381.90 171 381.50 170.80 380.90C170.60 380.50 171 380.20 171.30 379.90C171.90 379.30 172.60 378.70 173.20 378.10C175.50 375.80 178 373.70 180.40 371.40C180.90 370.90 182.30 369.10 183.10 369.30C183.70 369.40 184.40 370.20 184.90 370.60C186.40 371.70 187.80 372.90 189.20 374C194.20 377.90 199.30 381.60 204.30 385.40C219.50 397 235.70 407.30 252 417.10C257.30 420.30 262.50 423.50 267.90 426.40C269.80 427.40 273.40 428.70 274.10 430.80C275.50 430.20 276.30 431 277.60 431.70C279.50 432.80 281.40 433.70 283.30 434.70C291.80 438.90 300.30 443.20 309 447.20C335.40 459.30 363.60 468.90 392.40 473.30C399.40 474.40 406.40 475.30 413.40 475.60C415.10 475.70 416.80 475.70 418.50 475.80C419.30 475.80 420.20 476.10 421 475.70M297.10 371.10L297.10 371.20M322.80 371.20L322.80 374M353.20 372.30C353.40 373.50 354.30 374.40 353.40 375.60C352.90 375.10 353 373.60 353.30 373M347 372.90L346.60 375.10M308.30 373.20C308.90 375.20 308.90 377.10 308.90 379.20C308.90 380 309 381.10 308.50 381.80C307.60 380.20 308.10 377.60 308.10 375.80C308.10 375.10 307.90 374.20 308.30 373.50M349.40 374.40L349.80 374.80M297.70 375L297.60 376.60M360.30 375.70L359.70 377.20M357.30 376L357.30 376.50M359.40 376.90L359.80 376.50M277.60 376.60L278 378.30M287.30 377.50L287.10 377.80M286.60 378.20L287 378.60M306.40 380.10L306 382M335.20 381.30L335.20 381.40M178 381.70C178.40 381.30 179.60 382.40 179.80 382.70C180 382.80 180.30 383.20 180 383.40C179.60 383.70 178.50 382.60 178.20 382.40C178.10 382.20 177.70 381.90 178 381.70M180 383L179.60 383.40M471.90 384L471.90 384.70L472 384.70L472.10 384.60L471.80 384.20M471.80 384.70L471.40 384.40L471.50 384.30L471.60 384.30M471 384.50L471.30 384.80M471.30 384.40L471.40 384.40M225.20 385.80C224.40 386.20 223 385.90 222.10 385.70C221.80 385.60 221.10 385.50 221.20 385C221.40 384.60 222 384.70 222.30 384.80C223.30 384.90 224.50 385 225.20 385.80M156.10 385.10L156.20 385.20M156.90 386.30L157.70 386.30M435 387.80L435.70 387.80L435.40 388.20C435 387.80 434.70 387.80 434.20 388.10C434.60 388.40 434.80 388.40 435.30 388.20M434.50 388.50L433.90 388.50L433.90 388.30L434 388.20L434.10 388.10L434.20 388.10M435.90 394.30L436.10 394.50M190.40 394.40C189.90 394.80 188 395.60 188.20 396.30C188.40 396.80 189.10 397.30 189.50 397.70C190.50 398.50 191.60 399.40 192.60 400.30C196.50 403.60 200.40 406.80 204.40 410C205.60 410.90 206.70 411.90 207.90 412.70C208.30 413 209 413.60 209.50 413.50C210 413.50 210.20 412.90 210.40 412.50C211 411.40 211.60 410 211.90 408.80M198.90 400.80C199.90 400.70 198.90 402.10 198.20 402.10C197 402.10 198.20 400.80 198.90 400.80M416.50 405.70L416.30 405.30L416.40 405.20L416.60 405.20C416.70 405.90 415.90 406.40 415.40 406.90L415 406.50L414.90 406.60L414.80 406.80L414.80 406.90L415.30 406.90M415 406.40L416.20 405.40M211.80 409.40C212.20 410.10 212 411.10 212 411.90C212.10 413.50 212.20 415.10 213.10 416.40C214.50 418.30 216.60 419.70 218.40 421.10C221.70 423.70 225.10 426.20 228.40 428.70C236.20 434.50 244.10 440.20 252.20 445.70C256.10 448.30 260 451.40 264.20 453.40C265.80 454.10 268.40 453 270 452.60C270.70 452.50 271.50 452.20 272.10 452.50C271.40 453.40 270.10 453.80 269.20 454.70C268.80 455.10 268.40 455.50 268.80 456.10C269.60 457.30 271.30 458 272.50 458.70C275.30 460.50 278.10 462.20 281 463.80C287.70 467.60 294.40 471.40 301.20 475C304.70 476.90 308.30 478.90 312 480.50C315.20 481.90 318.20 483.60 321.40 485C322.30 485.40 324 486.60 325 486.20C325.40 486.10 325.50 485.60 325.60 485.30C325.90 484.40 326.10 483.60 326.40 482.70C327.30 480 328.10 477.20 329 474.50C329.40 473.40 330.20 472.10 330.30 471M255.20 410.70C256 410.50 256.30 412.20 255.60 412.50C255 412.60 254.50 410.90 255.20 410.70M269.60 415.30C270.20 415.10 270.40 415.60 270 416C269.50 416.60 268.60 417.40 267.80 417.50C267.10 417.60 267.40 416.80 267.60 416.50C268.10 415.90 268.90 415.40 269.60 415.30M285.60 440.50C286 440.40 286.20 440.90 286.40 441.10C286.70 441.70 287.20 443.20 286.20 443.50C284.90 443.90 284.60 440.70 285.60 440.50M377.50 443.40C378.60 444 380.30 444 381.50 444.20C384.60 444.80 387.70 445.20 390.80 445.50C402.30 446.70 413.60 447.80 425.10 447.30C428 447.20 431 446.90 433.90 446.60C435 446.50 436.50 446 437.60 446.30C438.10 446.40 438.50 446.80 438.90 447.10C439.80 447.80 440.60 448.50 441.50 449.10C444.50 451.40 447.60 453.70 450.70 455.90C461.10 463.20 471.70 470.20 482.30 477.30C489.60 482.10 496.90 486.90 504.20 491.60C505.90 492.70 507.70 493.80 509.40 494.90C509.80 495.20 510.90 495.80 510.70 496.40C510.50 496.70 509.90 496.90 509.60 497.10C508.60 497.50 507.50 497.80 506.50 498.20C502.80 499.40 499.10 500.40 495.40 501.30C494.40 501.60 492.40 502.50 491.40 502.20C488.70 501.10 486.10 499.50 483.50 498.20C482.80 497.90 481.50 496.80 480.60 496.90C480 496.90 481 498.40 481.10 498.60C482 499.90 483 500.90 483.80 502.20C484.10 502.70 484.60 503.40 483.90 503.80C482.40 504.70 480 504.80 478.30 505.10C474.80 505.80 471.30 506.40 467.80 506.90C466 507.20 463.80 507.80 462 507.50C461.50 507.30 461 506.90 460.50 506.80C458.70 506.20 457.10 505.90 455.40 505.10C454.80 504.80 453.20 503.70 452.50 503.80C452.20 503.90 452.80 505.80 452.80 506.20L452.70 506.30C451.50 505.60 450.60 504.40 449.60 503.50C449.30 503.20 448.80 502.60 448.30 502.80C448 502.90 447.70 503.30 447.60 503.60C447.10 504.40 446.10 505.90 446.30 506.80C446.40 507.40 448 508.60 446.90 509.10C445.40 509.60 443.40 509.50 441.90 509.60C439.10 509.70 436.20 509.90 433.40 509.90C423.80 509.90 414.20 509.90 404.60 508.70C401.60 508.40 398.60 508.10 395.60 507.70C394.40 507.50 392.80 507.50 391.80 506.70C390.60 505.60 390.60 503 390.50 501.50C390.20 498.10 389.90 494.70 389.60 491.30C389.50 490.20 389.70 488.50 389.20 487.50L389.10 487.50C388.40 488.70 388.20 490.40 387.90 491.70C387.10 494.60 386.30 497.40 385.60 500.30C385.20 501.60 385 504.10 384 505.10C383.40 505.70 381.20 505 380.40 504.90C377.80 504.40 375.20 503.80 372.70 503.20C371.60 502.90 370.20 502.80 369.20 502.20C368 501.50 368.90 499 369.20 497.90C369.30 497.60 369.60 496.50 369 496.50C368.60 496.40 368.10 497.20 367.90 497.50C367.20 498.40 366.20 500.30 365.10 500.70C364.20 501.10 362.90 500.50 362 500.20C359.90 499.60 357.90 499 355.80 498.30C354.80 498 353.60 497.80 352.80 497C352.10 496.30 352.30 495.10 351.80 494.20C351.20 494.70 350.80 495.80 350 496C348.60 496.30 346.50 495.20 345.20 494.70C341.60 493.40 338 492 334.40 490.50C333 490 331.70 489.40 330.30 488.80C329.80 488.60 329 488.40 328.80 487.80C328.30 486.50 328.80 484.40 329 483.10C329.40 479.40 330.30 475.60 330.30 471.90M148.20 479.40C147.30 478.70 146.30 478.80 145.20 478.50C144.80 478.40 144.70 478.10 144.40 477.90C144.10 477.80 143.80 477.80 143.50 477.70C143.90 476.90 144.70 476.50 145.50 476C146.70 475.30 147.80 474.60 149 473.80C153.70 470.70 158.40 467.50 163.10 464.30C169.10 460.20 175 456.10 180.90 451.90C182.70 450.60 184.40 449.20 186.10 447.90C186.80 447.40 187.50 446.60 188.30 446.30C188.70 446.10 189.30 446.30 189.80 446.40C191 446.50 192.20 446.70 193.40 446.80C197.40 447.20 201.30 447.30 205.30 447.30C213.40 447.30 221.50 447 229.50 446.20C232.10 445.90 234.70 445.60 237.30 445.30C238.60 445.10 240.20 444.60 241.50 444.70C242.20 444.80 243.90 446.50 244 447.20C244.10 447.50 243.70 447.60 243.70 447.90C243.50 448.40 244.10 448.80 244.40 449C245.10 449.60 246 450 246.60 450.60C246.80 451 246.90 451.40 247.10 451.80C247.40 452.40 248 453 248.50 453.50C249.10 454 249.90 454 250.50 454.50C252.50 456 254.40 458 256 459.90C257.50 461.50 259.30 463.50 257.60 465.70C256.80 466.70 255.10 466.90 253.90 467.20C250.90 468 247.90 468.60 244.90 469.30C242.20 470 239.30 470.90 236.50 471C235.60 471 235.60 469.70 235 469.80C234.40 469.90 233.90 470.60 233.50 471C232.90 471.50 232.10 471.80 231.40 472C226 473.30 220.40 473.70 214.90 474.40C211.90 474.70 208.90 475 205.90 475.30C204.80 475.40 203.10 475.20 202.20 475.80C202.90 476.30 204.50 476 205.40 476C208.40 476 211.40 475.70 214.40 475.50C226.80 474.70 238.80 472.50 251 469.90C254.10 469.20 257.20 468.50 260.20 467.60C261 467.40 263 466.50 263.80 466.90C264.60 467.20 265.30 468 265.90 468.50C267.30 469.60 268.60 470.60 269.90 471.80C270.60 472.40 271.50 473.20 271.70 474.10C271.80 474.80 271.80 476.50 271 476.80C270.60 477 270.10 476.60 269.80 476.90C269.30 477.30 269.60 478.70 270 479C270.30 479.20 270.70 479.10 271 479.10C271.70 478.90 273.40 478.90 273.80 478.20C274.10 477.70 273.80 476.90 273.70 476.40C273.70 476.10 273.60 475.20 274.20 475.30C274.80 475.40 275.20 476.10 275.60 476.50C276.30 477.20 277.10 477.90 277.90 478.50C281.30 481.20 284.70 484 288.20 486.70C289.30 487.50 290.40 488.20 291.40 489C291.70 489.30 292.30 489.60 292.30 490.10C292.30 490.80 290.50 491.10 290 491.20C287.40 492.10 284.80 493.20 282.20 494.20C280.50 494.80 278.30 496 276.50 496.10C275.90 496.10 275.40 495.70 275 495.20C274.80 495 274.60 494.60 274.20 494.70C274 494.80 273.90 495.30 273.80 495.60C273.50 496.20 273.20 496.80 272.70 497.20C271.90 497.80 270.80 498.10 269.80 498.40C268 499 266.20 499.50 264.40 500.10C263.40 500.40 262 500.90 260.90 500.60C259 500.20 258.40 497.10 256.80 496.10C256.50 497.30 257.20 499 257.30 500.20C257.40 500.70 257.50 501.40 257.30 501.80C256.90 502.50 255 502.70 254.20 502.90C251.20 503.60 248.30 504.30 245.30 505C244.50 505.20 242.50 506 241.80 505.40C241.50 505.20 241.50 504.50 241.40 504.10C241.10 503 240.90 501.90 240.60 500.80C239.80 497.50 238.90 494.20 238 490.90C237.80 489.90 237.50 488.90 237.20 488C237.10 487.50 236.80 487.20 236.80 486.70M334.50 450.70C336 450.30 339.50 452.30 336.60 452.90C335.90 453.10 334.70 453.30 334 452.80C333.20 452.20 333.50 450.90 334.50 450.70M413.30 456.30C414.30 455.90 417 457.10 415.10 457.90C414.60 458.10 413.70 458.10 413.20 457.70C412.70 457.40 412.70 456.50 413.30 456.30M303.30 456.90C303.80 456.60 304.30 456.60 304.80 456.80C305 456.90 305.30 457.10 305.20 457.30C304.80 457.90 303.10 456.80 302.60 456.80M304 456.90L303.80 457.20M387.70 458C388.70 458.90 389.20 462.30 388.60 463.50C387.60 462.60 387.10 459.20 387.70 458M203.60 460.80L201.40 461.90M251.20 461.80C251.40 461.90 251.60 462 251.80 462.20C251.90 462.40 252.60 463.40 252 463.50C251.20 463.60 251 462.30 251.20 461.80M328.50 463.80C328.80 463.50 330.40 464.60 330 465C329.50 465.40 328.10 464.10 328.50 463.80M260 464.70C260.50 464.40 261.10 465.20 260.60 465.50C260 465.80 259.30 465.10 260 464.70M184.90 466.80C185.60 466.40 186.60 467.40 185.70 467.90C184.90 468.30 184.10 467.30 184.90 466.80M180 469.60C179.60 469.80 179.10 470 178.60 470.10C178 470.30 176.90 470.80 176.30 470.50C175.70 470.30 176.50 469 176.80 468.80C177.20 468.60 177.50 469.10 177.80 469.20C178.70 469.60 179.30 468.90 180.10 469.60L180.40 469.30C180.10 469 180 469 179.70 469.20M180.50 469.10L180.70 469.10M203.40 475.60L203.40 475.90M197 476L202.20 475.80M249.20 477.90L246.40 476.90C247.10 476 249.40 476.70 249.20 477.90L249.10 478L249 477.90L249.10 477.80L249.40 477.70M248.70 477.50L248.90 477.50L248.70 477.50M249.10 477.60L249 477.70M249.50 477.70L249.70 478.10L249.50 478.30L249.10 478.10M249.80 478.30L250 478.40M147.50 479C146.70 479.70 145.10 479.30 144 479.30C142.40 479.30 140.90 479.80 139.50 480.40C137.10 481.50 134.90 483.10 132.70 484.50C129.20 486.80 125.70 489 122.30 491.30C120.50 492.50 118.70 493.60 116.90 494.80C116.50 495 115.20 495.60 115.20 496.20C115.20 496.70 116.60 497 117 497.20C118.90 498 120.90 498.50 122.80 499.20C125.40 500 128.10 500.80 130.80 501.50C131.90 501.80 133.30 502.30 134.40 502C135.60 501.70 136.80 501 138 500.40C140.70 499.20 143.40 497.90 145.90 496.50C147.60 495.50 149.30 493.90 151.10 495.60C152.20 496.60 150.80 497.70 149.80 498C148.30 498.50 146.70 498.10 145.30 498.70C144.20 499.20 143.50 500.40 142.90 501.30C142.60 501.70 141.40 503 141.70 503.60C141.90 503.90 142.70 504 143.10 504.10C144.50 504.50 145.90 504.70 147.30 505C150.60 505.70 153.80 506.30 157.10 506.80C159.90 507.30 162.50 507.80 165.30 507C167.30 506.40 169.30 505.40 171.30 504.60C171.80 504.40 172.90 503.70 173.50 503.90C174.30 504.10 172.60 506 173.40 506.10C173.80 506.20 174.20 505.60 174.40 505.40C175.10 504.80 177 502.30 178 503.10C178.70 503.70 179.90 505.70 179.80 506.70C179.70 507.30 178 508.70 178.90 509.10C179.50 509.40 180.30 509.40 180.90 509.40C182.60 509.60 184.60 509.80 186.30 509.50C186.90 509.40 187.20 508.60 187.90 508.60C188.50 508.70 188.60 509.30 189 509.50C189.70 509.90 190.60 509.90 191.30 510C192.60 510.10 194.20 510.10 195.50 509.90C196 509.70 196.70 509.10 197.20 509.10C197.90 509.20 198.30 509.90 199.10 510C201.20 510.10 203.30 509.90 205.40 509.80C209.80 509.60 214.10 509.20 218.50 508.90C222.50 508.60 226.60 508.20 230.60 507.60C231.60 507.50 234 507.60 234.70 506.80C235.10 506.50 235.10 505.70 235.10 505.20C235.20 504 235.30 502.80 235.40 501.60C235.60 498.30 236 494.90 236.30 491.60C236.40 490.40 236.20 488.60 236.80 487.50M148 479.30L147.20 479.40M371.40 480.30C372.30 480.10 372.50 481.40 371.60 481.50C370.80 481.70 370.50 480.40 371.40 480.30M268.80 480.40L268.90 480.50C268.80 481.60 267.60 482.90 266.90 483.70C266.50 484.10 266 484.50 265.50 484.20C266.20 482.80 267.40 481.10 268.80 480.40M445.20 486.30C446.20 485.90 448.60 486.60 448.90 487.70C449 488.40 448.50 489 448.20 489.50C448 489.80 447.70 490.30 447.40 490.40C447 490.50 446.50 489.90 446.30 489.70C445.80 489.10 443.70 486.90 445.20 486.30M389.30 486.70L389.20 487.50M139.20 490.40C138.80 490.60 136.90 490.70 137 489.80C137.10 489.10 139 490.20 139.20 490.40M351.90 493.70L351.80 494.10M165 494.90C165.50 494.80 165.50 495.20 165.30 495.50C165.10 495.90 164.60 496.50 164.10 496.50C163.70 496.50 163.80 496 163.90 495.80C164.10 495.40 164.50 495 165 494.90M369.50 495.70L369 496.30M369.50 496L369.50 496.50M198.10 498.80C198.70 498.40 201.20 497.60 201.20 499C201.20 501 198.70 499.50 198.10 498.80M145.70 499.90C146.10 499.80 146 500.50 145.90 500.70C145.80 501.20 145.30 502.20 144.70 502.30C144.30 502.40 144.20 501.80 144.30 501.50C144.50 501 145.10 500 145.70 499.90M151.30 500.10C152.20 500.60 152.80 501.70 153 502.70C153.10 503 153.30 503.70 152.90 503.80C152.50 503.90 152.10 503.40 151.90 503.10C151.40 502.30 151 501 151.30 500.10M200.20 503.30C201 503.70 201 504.50 200.20 504.90C200 504.30 200 503.90 200.20 503.30M173 506.10L172.60 507.10M173.50 506.30L173.10 506.60"/>
 </g>
</svg>