<?xml version="1.0" standalone="no"?>
<!DOCTYPE svg PUBLIC "-//W3C//DTD SVG 20010904//EN"
 "http://www.w3.org/TR/2001/REC-SVG-20010904/DTD/svg10.dtd">
<svg version="1.0" xmlns="http://www.w3.org/2000/svg"
 width="619.000000pt" height="619.000000pt" viewBox="0 0 619.000000 619.000000"
 preserveAspectRatio="xMidYMid meet">
<metadata>
Created by potrace 1.16, written by Peter Selinger 2001-2019
</metadata>
<g transform="translate(0.000000,619.000000) scale(0.100000,-0.100000)"
fill="#000000" stroke="none">
<path d="M2833 5106 c-221 -91 -399 -246 -547 -478 -25 -40 -32 -59 -24 -64 8
-5 6 -10 -7 -14 -11 -4 -45 -56 -80 -121 -51 -98 -67 -119 -109 -146 -60 -41
-126 -61 -227 -69 -44 -4 -79 -11 -79 -16 0 -5 -9 -4 -19 2 -22 11 -51 4 -51
-14 0 -6 3 -22 7 -35 6 -23 8 -24 97 -18 105 6 230 32 250 52 7 8 16 12 19 9
7 -7 44 12 88 47 24 19 57 69 103 156 38 70 84 152 102 181 19 29 34 55 34 58
0 3 7 12 15 21 10 9 13 23 9 36 -5 15 -3 19 9 14 11 -4 32 13 67 53 49 56 198
185 206 178 2 -2 -4 -31 -13 -63 -21 -74 -23 -302 -4 -390 24 -113 75 -201
170 -296 51 -50 107 -96 136 -110 116 -56 238 -17 366 119 76 80 153 197 144
219 -2 7 -1 13 4 13 12 0 34 57 26 69 -3 6 -2 11 4 11 32 0 47 287 18 367 -17
49 -16 49 67 -16 101 -79 175 -183 281 -398 87 -175 100 -197 146 -233 58 -46
85 -52 75 -17 -4 12 -9 35 -13 52 -4 16 -15 36 -25 45 -10 8 -47 71 -84 139
-36 68 -88 159 -116 203 -44 69 -53 78 -81 79 -29 1 -30 2 -8 8 24 6 23 7 -26
66 -97 117 -259 237 -395 293 -126 52 -129 52 -78 -5 98 -108 140 -235 140
-417 0 -121 -18 -226 -50 -290 -21 -43 -124 -176 -137 -178 -4 0 -22 -11 -38
-24 -95 -72 -168 -58 -286 53 -36 35 -75 63 -85 63 -13 0 -15 3 -7 8 9 5 2 27
-22 77 -19 39 -39 76 -45 83 -6 6 -7 12 -2 12 6 0 6 19 1 47 -12 64 -12 227 0
288 11 57 37 138 57 176 10 20 10 29 1 38 -6 6 -7 12 -2 12 6 1 15 2 20 3 13
1 100 96 89 96 -5 0 -46 -16 -91 -34z"/>
<path d="M2546 4360 c9 -80 41 -198 64 -238 l21 -35 -23 7 c-13 3 -93 8 -178
10 -149 4 -151 4 -55 -5 145 -14 274 -38 323 -59 23 -10 42 -17 42 -15 0 2
-16 22 -35 45 -50 60 -100 154 -125 235 -33 105 -41 119 -34 55z"/>
<path d="M3621 4370 c-31 -119 -82 -221 -161 -322 l-21 -27 43 19 c49 21 177
45 323 59 95 9 92 9 -61 6 -88 -3 -168 -7 -176 -10 -12 -5 -10 5 9 43 13 27
33 93 44 147 21 102 21 163 0 85z"/>
<path d="M4218 4239 c-10 -5 -18 -21 -18 -35 0 -34 -25 -82 -69 -128 -26 -28
-30 -35 -13 -27 12 7 39 34 60 61 l37 50 60 -6 c33 -3 74 -7 90 -8 17 -2 47
-6 69 -11 42 -8 56 2 56 41 0 26 -6 29 -123 54 -102 22 -124 24 -149 9z"/>
<path d="M2861 3954 c-14 -10 -21 -23 -18 -35 3 -12 -2 -20 -15 -25 -28 -8
-20 -52 15 -78 24 -18 32 -19 59 -8 27 10 40 8 97 -15 79 -31 113 -52 105 -64
-3 -5 8 -15 24 -22 16 -6 30 -15 30 -20 1 -4 8 -23 16 -42 17 -39 38 -44 74
-19 38 26 23 74 -24 74 -13 0 -26 5 -29 10 -11 17 29 11 64 -11 31 -19 34 -19
52 -3 23 21 25 57 3 75 -12 10 -22 10 -46 1 -21 -8 -37 -8 -56 0 l-27 10 40
18 c28 13 44 16 57 9 21 -12 55 -4 81 19 23 20 22 62 -1 69 -14 3 -18 11 -14
28 3 19 -2 27 -22 36 -41 19 -87 1 -109 -43 -12 -25 -33 -44 -71 -64 l-53 -28
-54 31 c-35 19 -55 38 -57 51 -4 27 -48 62 -76 62 -12 0 -32 -7 -45 -16z"/>
<path d="M2877 3773 c-13 -3 -16 -12 -13 -38 7 -57 24 -69 55 -41 22 20 71 31
71 17 0 -6 -13 -11 -29 -11 -39 0 -57 -23 -43 -55 21 -45 92 -42 92 5 0 10 12
25 26 34 32 21 30 59 -3 64 -13 2 -23 10 -23 19 0 11 -6 13 -22 8 -30 -9 -48
-10 -73 -3 -11 3 -28 3 -38 1z"/>
<path d="M2372 3603 l3 -48 -35 2 c-32 3 -33 2 -17 -11 10 -8 55 -29 100 -47
95 -37 121 -54 52 -33 -27 7 -68 14 -92 14 -53 0 -56 -16 -17 -93 19 -36 22
-47 10 -38 -23 19 -26 13 -17 -36 5 -23 6 -75 3 -116 -2 -41 -1 -77 4 -80 5
-3 10 12 11 32 1 21 7 48 12 62 7 19 8 13 5 -26 -6 -60 8 -91 55 -122 40 -27
37 -29 -14 -8 -38 17 -68 13 -97 -12 -56 -50 -7 -203 65 -203 14 0 27 -7 31
-15 3 -10 19 -15 46 -15 41 0 49 -7 28 -28 -9 -9 -2 -12 33 -12 40 0 46 -3 55
-27 l10 -28 27 53 26 53 -47 -5 -47 -5 40 14 40 13 -75 2 c-41 1 -93 8 -115
15 l-40 14 44 -6 c83 -10 171 -5 197 12 13 9 29 13 35 9 6 -3 20 2 32 13 54
47 58 43 10 -11 -62 -70 -113 -162 -113 -204 0 -16 -7 -43 -15 -58 -21 -42
-19 -97 5 -119 11 -10 20 -24 20 -32 0 -7 9 -13 20 -13 18 0 20 7 20 58 0 32
-5 63 -12 70 -9 9 -9 12 0 12 7 0 15 -7 18 -15 4 -11 22 -15 63 -16 123 -1
176 3 204 17 22 12 46 14 102 9 l73 -7 -9 -32 c-13 -44 -11 -59 5 -53 10 4 13
1 9 -8 -3 -8 -9 -12 -14 -9 -5 3 -9 -19 -9 -49 0 -52 2 -55 32 -68 42 -17 66
-14 90 10 10 12 23 21 28 21 12 0 11 104 0 140 -4 14 -8 21 -9 17 -1 -5 -13 0
-29 11 -15 11 -38 22 -52 25 -21 4 -20 5 8 6 18 0 49 -6 70 -15 27 -11 69 -15
155 -15 65 0 121 3 125 5 4 2 5 -21 4 -51 -4 -63 6 -80 37 -64 28 16 29 87 0
142 l-20 41 20 5 c52 14 9 126 -91 238 -65 72 -64 73 13 12 25 -20 49 -34 52
-30 4 3 17 -3 30 -15 12 -11 33 -26 47 -31 21 -9 18 -10 -17 -5 -48 6 -50 3
-23 -46 l19 -35 1 28 0 29 34 -21 c43 -27 66 -28 43 -3 -24 26 -21 29 14 24
22 -3 30 -1 25 7 -5 7 5 11 30 11 73 0 139 64 150 144 12 83 -44 131 -118 101
l-39 -15 41 39 c40 38 42 42 39 89 -5 62 7 58 18 -6 7 -40 9 -30 13 73 3 66 4
122 3 124 -2 2 -9 -2 -18 -9 -9 -8 -4 12 14 50 17 35 28 67 25 72 -8 13 -86 9
-139 -6 -63 -19 -46 -5 30 24 86 33 135 59 135 70 0 6 -11 8 -25 4 -24 -6 -25
-4 -26 37 l-1 44 -9 -44 c-11 -59 -29 -76 -30 -30 l-1 34 -12 -35 c-9 -30 -15
-35 -41 -34 -16 0 -40 -6 -52 -14 -13 -8 -23 -11 -23 -7 0 5 -9 0 -20 -10 -11
-10 -20 -14 -20 -10 0 5 -11 -2 -25 -15 -17 -16 -23 -30 -19 -42 3 -11 -1 -30
-10 -43 -9 -13 -16 -27 -16 -30 0 -3 33 -3 74 1 124 11 121 13 119 -109 -1
-73 -6 -114 -17 -135 -20 -39 -83 -91 -118 -99 -34 -7 -35 -16 -5 -32 16 -8
17 -10 2 -5 -11 4 -56 17 -101 29 -91 26 -129 43 -195 91 -26 19 -50 34 -53
34 -3 0 1 -17 9 -37 9 -21 12 -33 7 -28 -20 22 -111 153 -136 198 -16 26 -35
47 -45 47 -9 0 -31 -24 -50 -56 -30 -50 -134 -201 -148 -214 -3 -3 4 15 16 38
24 48 21 64 -6 40 -10 -8 -25 -18 -33 -22 -22 -11 60 61 92 81 29 18 44 43 26
43 -24 0 -79 -43 -133 -105 -67 -77 -70 -78 -177 -110 -46 -13 -92 -26 -103
-30 -16 -4 -15 -3 3 6 29 16 28 25 -5 34 -16 3 -43 18 -61 31 -58 45 -67 67
-72 191 -5 113 -5 114 19 120 55 14 173 -8 286 -53 11 -4 -4 15 -33 44 -47 46
-84 69 -68 43 4 -5 -3 -7 -14 -4 -11 3 -20 13 -20 23 0 16 -61 63 -83 64 -5 1
-14 9 -21 19 -7 9 -18 17 -24 17 -5 0 -13 8 -16 17 -5 13 -9 14 -15 5 -5 -9
-11 -4 -20 15 -12 26 -14 26 -21 8 -5 -16 -10 -9 -24 33 -10 28 -20 52 -22 52
-3 0 -4 -21 -2 -47z m768 -433 c10 -6 50 -48 89 -95 75 -91 102 -148 81 -168
-10 -9 -11 -9 -5 2 6 10 3 12 -12 7 -13 -4 -30 1 -46 15 -30 23 -35 15 -11
-19 14 -21 14 -22 -6 -22 -12 0 -19 -4 -16 -9 4 -5 -3 -7 -14 -4 -13 3 -29 29
-49 82 -27 68 -30 72 -31 41 0 -19 -9 -53 -19 -76 -18 -39 -22 -42 -70 -48
-59 -8 -73 -3 -64 22 7 16 5 16 -17 0 -62 -44 -64 -44 -56 2 10 63 31 96 89
141 29 23 68 63 87 90 38 52 42 54 70 39z"/>
<path d="M3664 3585 c-16 -14 -45 -30 -64 -36 -45 -15 -87 -54 -95 -89 -7 -30
-29 -40 -80 -39 -24 1 -20 3 18 11 35 8 47 15 47 29 0 17 -2 17 -37 3 -21 -8
-45 -19 -55 -24 -10 -5 -29 -5 -51 1 -23 6 -44 6 -61 -1 -15 -5 -30 -9 -34 -8
-15 3 -78 -14 -93 -25 -25 -19 -41 -56 -34 -78 4 -11 21 -29 38 -40 60 -36
167 -20 300 47 82 42 107 65 107 102 0 20 13 40 46 72 43 43 90 100 81 100 -2
0 -17 -11 -33 -25z"/>
<path d="M2700 3495 c0 -3 12 -21 26 -40 14 -18 29 -48 35 -67 7 -25 23 -41
67 -68 49 -30 66 -35 120 -35 57 0 66 3 88 28 26 31 31 73 11 101 -10 13 -32
20 -83 24 -62 5 -68 4 -56 -11 11 -13 10 -15 -7 -10 -12 3 -17 11 -14 19 3 8
-1 14 -8 14 -8 0 -25 3 -39 6 -20 4 -22 3 -10 -5 28 -20 -1 -11 -43 13 -46 26
-87 41 -87 31z"/>
<path d="M1335 3091 c-22 -10 -61 -37 -87 -60 -39 -34 -49 -40 -54 -27 -9 24
4 49 22 42 17 -6 74 19 74 34 0 16 -41 22 -71 10 -32 -14 -44 -43 -37 -92 3
-21 -1 -43 -13 -63 -20 -32 -25 -80 -10 -89 5 -3 -3 -34 -17 -68 -26 -66 -35
-167 -16 -200 6 -11 9 5 9 55 0 50 6 86 19 115 18 40 21 42 52 36 41 -8 79 3
66 19 -15 19 -7 81 14 109 29 39 77 68 110 68 39 0 50 -11 25 -24 -17 -10
-106 -92 -137 -128 -12 -14 10 -67 33 -81 7 -4 20 -21 28 -37 8 -16 24 -31 35
-35 11 -3 20 -15 20 -25 0 -25 41 -55 52 -37 5 8 8 3 9 -13 1 -20 3 -18 13 14
16 52 66 109 117 134 38 19 45 20 74 7 24 -9 36 -10 44 -2 15 15 14 27 -2 27
-7 0 -23 14 -35 30 -13 17 -28 30 -35 30 -7 0 -17 10 -22 22 -6 13 -21 29 -35
35 -32 16 -121 95 -98 87 39 -13 53 84 16 110 -30 22 -114 20 -163 -3z m269
-277 c20 -8 21 -24 2 -24 -8 0 -24 -9 -37 -21 -13 -11 -17 -17 -9 -14 8 4 -2
-7 -23 -25 -20 -17 -47 -48 -58 -68 -14 -27 -18 -30 -14 -12 l6 25 -19 -24
c-26 -32 -46 -19 -39 24 15 89 121 166 191 139z"/>
<path d="M4682 3094 c-37 -26 -23 -124 16 -110 9 4 -5 -14 -33 -38 -27 -25
-55 -45 -61 -46 -17 0 -47 -38 -39 -49 3 -7 -2 -11 -14 -11 -10 0 -31 -13 -44
-30 -14 -16 -30 -30 -36 -30 -15 0 -14 -15 2 -29 9 -7 17 -7 24 0 19 19 72 13
112 -14 47 -31 84 -79 98 -127 9 -30 11 -31 12 -10 1 16 4 21 9 13 11 -18 52
12 52 37 0 10 9 22 20 25 11 4 26 18 34 33 8 15 23 36 35 46 12 11 21 26 21
34 0 12 3 12 15 2 10 -8 30 -10 58 -6 l44 7 19 -43 c13 -29 19 -65 19 -116 l0
-74 13 44 c15 51 9 101 -23 181 -12 31 -19 60 -14 63 14 9 10 52 -8 87 -9 18
-17 54 -17 81 -1 41 -5 52 -28 69 -26 20 -78 18 -78 -3 0 -15 57 -41 74 -34
18 7 31 -18 22 -42 -5 -13 -15 -7 -54 27 -26 23 -65 50 -87 60 -49 23 -133 25
-163 3z m1 -303 c64 -41 110 -136 76 -157 -6 -3 -22 6 -36 22 -20 24 -22 25
-13 6 7 -13 10 -26 7 -28 -2 -3 -10 9 -17 26 -7 16 -28 43 -46 60 -19 16 -33
33 -32 37 2 5 -14 16 -35 27 -29 14 -35 21 -25 27 26 17 75 9 121 -20z"/>
<path d="M1800 2811 c-38 -9 -53 -21 -98 -82 -41 -57 -117 -129 -136 -129 -14
0 34 48 67 68 15 9 27 22 27 28 0 7 6 14 13 17 6 2 9 8 5 12 -8 9 -59 -21 -55
-33 1 -5 -15 -23 -35 -41 -21 -18 -38 -39 -38 -46 0 -8 -10 -17 -22 -20 -57
-16 -80 -30 -94 -57 -20 -38 -11 -73 26 -108 l29 -27 -72 2 c-123 5 -215 50
-278 139 -31 42 -38 41 -15 -2 37 -70 156 -149 259 -172 53 -12 152 -6 143 8
-2 4 18 5 46 3 54 -3 89 17 85 49 -1 10 29 52 66 94 l68 76 62 -53 c104 -89
297 -231 454 -335 177 -118 390 -245 411 -245 9 0 24 -9 33 -18 40 -40 401
-206 614 -282 231 -83 494 -146 713 -171 65 -8 100 -14 79 -15 -51 -1 -213 17
-317 35 -294 53 -643 175 -973 340 -118 59 -393 213 -439 246 -16 11 -34 16
-40 12 -7 -4 -10 -4 -6 1 4 4 -50 46 -120 93 -147 98 -307 213 -405 290 l-69
54 -59 -58 c-33 -32 -58 -62 -57 -66 2 -5 37 -37 78 -73 57 -49 80 -63 95 -58
16 5 18 3 8 -8 -10 -12 7 -30 94 -102 105 -87 107 -88 119 -65 12 22 12 22 16
-12 3 -30 14 -43 78 -93 94 -73 238 -176 356 -255 85 -57 94 -61 125 -52 45
13 45 13 18 -9 l-23 -18 40 -25 c151 -96 508 -282 528 -275 5 2 20 32 33 68
l23 64 -6 -60 c-3 -33 -7 -67 -10 -76 -4 -13 13 -24 68 -47 130 -53 148 -58
157 -43 6 9 9 8 13 -6 4 -13 23 -24 64 -35 58 -16 59 -16 83 5 l24 22 -7 -27
c-7 -30 -12 -27 111 -56 l43 -10 15 50 c8 27 17 65 21 84 11 58 21 38 27 -52
2 -47 8 -88 11 -91 11 -11 252 -32 371 -32 129 0 208 9 188 22 -9 6 -10 14 -1
33 l11 24 25 -22 c14 -13 22 -17 18 -10 -9 16 -3 15 39 -2 19 -8 35 -12 35 -9
0 3 6 1 13 -5 11 -9 42 -6 205 23 l33 6 -26 35 c-14 19 -24 34 -21 34 3 0 30
-12 60 -27 l54 -26 92 26 c88 25 109 33 99 40 -2 2 -96 63 -209 136 -113 73
-276 182 -362 243 l-157 110 -213 2 c-193 2 -389 20 -387 35 0 3 55 45 122 93
221 159 237 173 237 216 l1 37 12 -28 12 -28 107 88 c87 72 105 90 95 102 -10
11 -8 13 8 8 15 -5 38 9 95 58 41 36 76 68 78 73 1 4 -24 34 -56 65 l-59 58
-145 -109 c-296 -224 -859 -574 -884 -549 -10 9 -22 1 165 107 286 162 666
424 690 476 7 16 17 24 26 20 9 -3 41 17 79 49 l65 55 68 -76 c37 -42 68 -84
68 -93 0 -32 25 -51 66 -51 21 0 59 -5 83 -12 97 -26 260 34 342 125 61 68 55
78 -8 13 -65 -65 -138 -96 -243 -100 -40 -2 -78 -6 -86 -10 -8 -4 -3 2 11 13
14 11 28 21 31 21 3 0 14 16 24 35 18 32 18 36 3 68 -9 20 -28 38 -45 45 -15
6 -50 18 -76 28 -47 17 -56 26 -187 175 -30 35 -41 40 -77 41 -76 1 -126 -51
-127 -132 -1 -27 2 -51 6 -55 4 -4 20 2 36 14 23 16 45 21 89 21 l60 0 69 -87
c104 -130 98 -116 61 -149 -31 -28 -31 -28 -8 -2 28 32 33 22 -72 141 l-69 77
-55 0 c-52 0 -59 -3 -156 -74 -217 -157 -440 -290 -692 -412 -167 -81 -389
-174 -414 -174 -28 0 -237 87 -416 174 -257 125 -468 250 -708 423 -82 59 -92
63 -141 63 l-54 0 -69 -77 c-105 -119 -100 -109 -72 -141 23 -26 23 -26 -8 2
-37 33 -43 19 61 149 l69 87 61 0 c45 0 68 -6 86 -20 14 -11 28 -20 32 -20 13
0 19 60 9 97 -18 65 -81 107 -141 94z m-220 -251 c0 -12 9 -24 21 -29 21 -7
20 -9 -18 -49 -40 -42 -61 -49 -110 -36 -26 7 -38 47 -22 75 11 22 81 58 112
59 10 0 17 -8 17 -20z m3097 1 c90 -41 80 -120 -16 -121 -14 0 -39 16 -65 41
-40 41 -40 42 -18 50 13 5 22 17 22 29 0 25 22 26 77 1z"/>
<path d="M2979 2576 c-1 -3 -2 -9 -3 -13 -1 -5 -11 -23 -23 -41 -14 -22 -23
-29 -26 -20 -3 7 -6 -3 -6 -22 -1 -19 -4 -52 -7 -72 -6 -36 -5 -37 23 -36 17
1 35 -2 42 -6 6 -4 11 -2 11 4 0 6 6 17 13 24 10 11 15 10 26 -1 7 -8 18 -12
24 -10 25 8 30 36 21 113 l-9 79 -42 3 c-24 2 -44 1 -44 -2z"/>
<path d="M2686 2544 c-12 -30 -6 -95 9 -111 9 -8 24 -13 34 -10 14 3 23 -6 37
-37 l19 -41 5 65 c3 36 11 75 18 87 6 12 12 29 12 37 0 23 -56 21 -69 -1 -6
-10 -11 -13 -11 -6 0 6 -10 9 -22 7 -13 -2 -17 -2 -10 2 16 8 15 24 -2 24 -8
0 -17 -7 -20 -16z"/>
<path d="M3375 2550 c-10 -16 17 -190 28 -183 5 3 18 24 28 47 13 29 19 35 19
19 0 -21 9 -23 43 -8 13 6 17 20 17 66 0 56 -1 59 -25 59 -17 0 -25 -6 -26
-17 0 -15 -2 -15 -9 2 l-9 20 -1 -20 c-1 -15 -3 -16 -7 -5 -11 28 -46 40 -58
20z"/>
<path d="M2250 1769 c-36 -5 -143 -8 -238 -7 l-173 2 -77 -55 c-42 -31 -141
-100 -220 -153 -78 -54 -140 -102 -137 -107 4 -5 -3 -9 -15 -9 -15 0 -218
-121 -279 -167 -9 -7 10 -15 98 -40 l93 -26 79 38 c60 30 82 36 91 27 9 -9 6
-14 -13 -20 -13 -5 -29 -7 -35 -5 -7 2 -22 -10 -34 -26 -12 -17 -18 -31 -13
-31 4 0 55 -9 112 -19 103 -19 106 -19 153 0 57 22 61 23 52 7 -4 -7 4 -3 18
10 l25 22 11 -24 c7 -15 7 -27 1 -33 -17 -17 55 -23 236 -19 147 3 311 19 322
30 3 2 7 45 10 95 3 50 9 89 12 85 3 -3 15 -40 26 -82 l20 -77 40 1 c22 1 58
6 81 13 37 10 41 14 37 39 l-4 27 20 -23 21 -24 65 22 c45 15 65 27 65 38 0
14 2 14 9 3 7 -12 23 -9 90 15 45 16 81 31 81 34 0 6 -167 142 -183 148 -4 2
-4 -3 -1 -12 7 -18 -18 -32 -37 -21 -8 6 -7 10 5 17 26 14 19 34 -24 68 -28
22 -48 31 -63 27 -206 -46 -278 -60 -385 -72 -70 -8 -147 -14 -172 -14 -32 1
-22 4 35 10 126 13 235 31 241 40 2 4 11 6 18 3 12 -5 92 11 187 36 54 15 55
40 5 89 -23 23 -47 41 -53 41 -7 0 -15 9 -18 20 -3 11 -11 20 -16 20 -5 0 -14
11 -19 25 -11 28 -29 30 -150 14z"/>
</g>
</svg>
