<?xml version="1.0" standalone="no"?>
<!DOCTYPE svg PUBLIC "-//W3C//DTD SVG 20010904//EN"
 "http://www.w3.org/TR/2001/REC-SVG-20010904/DTD/svg10.dtd">
<svg version="1.0" xmlns="http://www.w3.org/2000/svg"
 width="626.000000pt" height="626.000000pt" viewBox="0 0 626.000000 626.000000"
 preserveAspectRatio="xMidYMid meet">
<metadata>
Created by potrace 1.16, written by Peter Selinger 2001-2019
</metadata>
<g transform="translate(0.000000,626.000000) scale(0.100000,-0.100000)"
fill="#000000" stroke="none">
<path d="M0 3130 l0 -3130 3130 0 3130 0 0 3130 0 3130 -3130 0 -3130 0 0
-3130z m2929 1993 c-24 -27 -48 -49 -54 -49 -5 -1 -14 -2 -20 -3 -5 0 -4 -6 2
-12 9 -9 9 -18 -1 -38 -20 -38 -46 -119 -57 -176 -12 -61 -12 -224 0 -288 5
-28 5 -47 -1 -47 -5 0 -4 -6 2 -12 6 -7 26 -44 45 -83 24 -50 31 -72 22 -77
-8 -5 -6 -8 7 -8 10 0 49 -28 85 -63 118 -111 191 -125 286 -53 16 13 34 24
38 24 13 2 116 135 137 178 32 64 50 169 50 290 0 182 -42 309 -140 417 -51
57 -48 57 78 5 136 -56 298 -176 395 -293 49 -59 50 -60 26 -66 -22 -6 -21 -7
8 -8 28 -1 37 -10 81 -79 28 -44 80 -135 116 -203 37 -68 74 -131 84 -139 10
-9 21 -29 25 -45 4 -17 9 -40 13 -52 10 -35 -17 -29 -75 17 -46 36 -59 58
-146 233 -106 215 -180 319 -281 398 -83 65 -84 65 -67 16 29 -80 14 -367 -18
-367 -6 0 -7 -5 -4 -11 8 -12 -14 -69 -26 -69 -5 0 -6 -6 -4 -13 9 -22 -68
-139 -144 -219 -128 -136 -250 -175 -366 -119 -29 14 -85 60 -136 110 -95 95
-146 183 -170 296 -19 88 -17 316 4 390 9 32 15 61 13 63 -8 7 -157 -122 -206
-178 -35 -40 -56 -57 -67 -53 -12 5 -14 1 -9 -14 4 -13 1 -27 -9 -36 -8 -9
-15 -18 -15 -21 0 -3 -15 -29 -34 -58 -18 -29 -64 -111 -102 -181 -46 -87 -79
-137 -103 -156 -44 -35 -81 -54 -88 -47 -3 3 -12 -1 -19 -9 -20 -20 -145 -46
-250 -52 -89 -6 -91 -5 -97 18 -4 13 -7 29 -7 35 0 18 29 25 51 14 10 -6 19
-7 19 -2 0 5 35 12 79 16 101 8 167 28 227 69 42 27 58 48 109 146 35 65 69
117 80 121 13 4 15 9 7 14 -8 5 -1 24 24 64 148 232 326 387 547 478 45 18 86
34 91 34 5 0 -11 -21 -35 -47z m-309 -788 c25 -81 75 -175 125 -235 19 -23 35
-43 35 -45 0 -2 -19 5 -42 15 -49 21 -178 45 -323 59 -96 9 -94 9 55 5 85 -2
165 -7 178 -10 l23 -7 -21 35 c-23 40 -55 158 -64 238 -7 64 1 50 34 -55z
m1041 -20 c-11 -54 -31 -120 -44 -147 -19 -38 -21 -48 -9 -43 8 3 88 7 176 10
153 3 156 3 61 -6 -146 -14 -274 -38 -323 -59 l-43 -19 21 27 c79 101 130 203
161 322 21 78 21 17 0 -85z m746 -55 c117 -25 123 -28 123 -54 0 -39 -14 -49
-56 -41 -22 5 -52 9 -69 11 -16 1 -57 5 -90 8 l-60 6 -37 -50 c-21 -27 -48
-54 -60 -61 -17 -8 -13 -1 13 27 44 46 69 94 69 128 0 27 22 45 55 46 12 0 62
-9 112 -20z m-1414 -280 c14 -11 27 -30 29 -42 2 -13 22 -32 57 -51 l54 -31
53 28 c38 20 59 39 71 64 22 44 68 62 109 43 20 -9 25 -17 22 -36 -4 -17 0
-25 14 -28 23 -7 24 -49 1 -69 -26 -23 -60 -31 -81 -19 -13 7 -29 4 -57 -9
l-40 -18 27 -10 c19 -8 35 -8 56 0 24 9 34 9 46 -1 22 -18 20 -54 -3 -75 -18
-16 -21 -16 -52 3 -35 22 -75 28 -64 11 3 -5 16 -10 29 -10 47 0 62 -48 24
-74 -36 -25 -57 -20 -74 19 -8 19 -15 38 -16 42 0 5 -14 14 -30 20 -16 7 -27
17 -24 22 8 12 -26 33 -105 64 -57 23 -70 25 -97 15 -27 -11 -35 -10 -59 8
-35 26 -43 70 -15 78 13 5 18 13 15 25 -6 22 30 51 63 51 12 0 33 -9 47 -20z
m-3 -183 c8 1 25 4 38 8 16 5 22 3 22 -8 0 -9 10 -17 23 -19 33 -5 35 -43 3
-64 -14 -9 -26 -24 -26 -34 0 -47 -71 -50 -92 -5 -14 32 4 55 43 55 16 0 29 5
29 11 0 14 -49 3 -71 -17 -31 -28 -48 -16 -55 41 -4 36 11 48 51 37 11 -3 27
-5 35 -5z m-554 -169 c14 -42 19 -49 24 -33 7 18 9 18 21 -8 9 -19 15 -24 20
-15 6 9 10 8 15 -5 3 -9 11 -17 16 -17 6 0 17 -8 24 -17 7 -10 16 -18 21 -19
22 -1 83 -48 83 -64 0 -10 9 -20 20 -23 11 -3 18 -1 14 4 -16 26 21 3 68 -43
29 -29 44 -48 33 -44 -113 45 -231 67 -286 53 -24 -6 -24 -7 -19 -120 5 -124
14 -146 72 -191 18 -13 45 -28 61 -31 33 -9 34 -18 5 -34 -18 -9 -19 -10 -3
-6 11 4 57 17 103 30 107 32 110 33 177 110 54 62 109 105 133 105 18 0 3 -25
-26 -43 -32 -20 -114 -92 -92 -81 8 4 23 14 33 22 27 24 30 8 6 -40 -12 -23
-19 -41 -16 -38 14 13 118 164 148 214 19 32 41 56 50 56 10 0 29 -21 45 -47
25 -45 116 -176 136 -198 5 -5 2 7 -7 28 -8 20 -12 37 -9 37 3 0 27 -15 53
-34 66 -48 104 -65 195 -91 45 -12 90 -25 101 -29 15 -5 14 -3 -2 5 -30 16
-29 25 5 32 35 8 98 60 118 99 11 21 16 62 17 135 2 122 5 120 -119 109 -41
-4 -74 -4 -74 -1 0 3 7 17 16 30 9 13 13 32 10 43 -4 12 2 26 19 42 14 13 25
20 25 15 0 -4 9 0 20 10 11 10 20 15 20 10 0 -4 10 -1 23 7 12 8 36 14 52 14
26 -1 32 4 41 34 l12 35 1 -34 c1 -46 19 -29 30 30 l9 44 1 -44 c1 -41 2 -43
26 -37 14 4 25 2 25 -4 0 -11 -49 -37 -135 -70 -76 -29 -93 -43 -30 -24 53 15
131 19 139 6 3 -5 -8 -37 -25 -72 -18 -38 -23 -58 -14 -50 9 7 16 11 18 9 1
-2 0 -58 -3 -124 -4 -103 -6 -113 -13 -73 -11 64 -23 68 -18 6 3 -47 1 -51
-39 -89 l-41 -39 39 15 c74 30 130 -18 118 -101 -11 -80 -77 -144 -150 -144
-25 0 -35 -4 -30 -11 5 -8 -3 -10 -25 -7 -35 5 -38 2 -14 -24 23 -25 0 -24
-43 3 l-34 21 0 -29 -1 -28 -19 35 c-27 49 -25 52 23 46 35 -5 38 -4 17 5 -14
5 -35 20 -47 31 -13 12 -26 18 -30 15 -3 -4 -27 10 -52 30 -77 61 -78 60 -13
-12 100 -112 143 -224 91 -238 l-20 -5 20 -41 c29 -55 28 -126 0 -142 -31 -16
-41 1 -37 64 1 30 0 53 -4 51 -4 -2 -60 -5 -125 -5 -86 0 -128 4 -155 15 -21
9 -52 15 -70 15 -28 -1 -29 -2 -8 -6 14 -3 37 -14 52 -25 16 -11 28 -16 29
-11 1 4 5 -3 9 -17 11 -36 12 -140 0 -140 -5 0 -18 -9 -28 -21 -24 -24 -48
-27 -90 -10 -30 13 -32 16 -32 68 0 30 4 52 9 49 5 -3 11 1 14 9 4 9 1 12 -9
8 -16 -6 -18 9 -5 53 l9 32 -73 7 c-56 5 -80 3 -102 -9 -28 -14 -81 -18 -204
-17 -41 1 -59 5 -63 16 -3 8 -11 15 -18 15 -9 0 -9 -3 0 -12 7 -7 12 -38 12
-70 0 -51 -2 -58 -20 -58 -11 0 -20 6 -20 13 0 8 -9 22 -20 32 -24 22 -26 77
-5 119 8 15 15 42 15 58 0 42 51 134 113 204 48 54 44 58 -10 11 -12 -11 -26
-16 -32 -13 -6 4 -22 0 -35 -9 -26 -17 -114 -22 -197 -12 l-44 6 40 -14 c22
-7 74 -14 115 -15 l75 -2 -40 -13 -40 -14 47 5 47 5 -26 -53 -27 -53 -10 28
c-9 24 -15 27 -55 27 -35 0 -42 3 -33 12 21 21 13 28 -28 28 -27 0 -43 5 -46
15 -4 8 -17 15 -31 15 -72 0 -121 153 -65 203 29 25 59 29 97 12 51 -21 54
-19 14 8 -47 31 -61 62 -55 122 3 39 2 45 -5 26 -5 -14 -11 -41 -12 -62 -1
-20 -6 -35 -11 -32 -5 3 -6 39 -4 80 3 41 2 93 -3 116 -9 49 -6 55 17 36 12
-9 9 2 -10 38 -39 77 -36 93 17 93 24 0 65 -7 92 -14 69 -21 43 -4 -52 33 -45
18 -90 39 -100 47 -16 13 -15 14 17 11 l35 -2 -3 48 c-2 26 -1 47 2 47 2 0 12
-24 22 -52z m1285 -15 c-10 -16 -40 -48 -65 -73 -33 -32 -46 -52 -46 -72 0
-37 -25 -60 -107 -102 -133 -67 -240 -83 -300 -47 -69 43 -43 118 47 137 19 4
38 7 42 6 4 -1 19 3 34 8 17 7 38 7 61 1 22 -6 41 -6 51 -1 10 5 34 16 55 24
35 14 37 14 37 -3 0 -14 -12 -21 -47 -29 -38 -8 -42 -10 -18 -11 51 -1 73 9
80 39 8 35 50 74 95 89 19 6 48 22 64 36 38 32 42 32 17 -2z m-894 -119 c42
-24 71 -33 43 -13 -12 8 -10 9 10 5 14 -3 31 -6 39 -6 7 0 11 -6 8 -14 -3 -8
2 -16 14 -19 17 -5 18 -3 7 10 -12 15 -6 16 56 11 51 -4 73 -11 83 -24 20 -28
15 -70 -11 -101 -22 -25 -31 -28 -88 -28 -54 0 -71 5 -120 35 -44 27 -60 43
-67 68 -6 19 -21 49 -35 67 -14 19 -26 37 -26 40 0 10 41 -5 87 -31z m-1289
-370 c37 -26 23 -123 -16 -110 -23 8 66 -71 98 -87 14 -6 29 -22 35 -35 5 -12
15 -22 22 -22 7 0 22 -13 35 -30 12 -16 28 -30 35 -30 16 0 17 -12 2 -27 -8
-8 -20 -7 -44 2 -29 13 -36 12 -74 -7 -51 -25 -101 -82 -117 -134 -10 -32 -12
-34 -13 -14 -1 16 -4 21 -9 13 -11 -18 -52 12 -52 37 0 10 -9 22 -20 25 -11 4
-27 19 -35 35 -8 16 -21 33 -28 37 -23 14 -45 67 -33 81 31 36 120 118 137
128 25 13 14 24 -25 24 -33 0 -81 -29 -110 -68 -21 -28 -29 -90 -14 -109 13
-16 -25 -27 -66 -19 -31 6 -34 4 -52 -36 -13 -29 -19 -65 -19 -115 0 -50 -3
-66 -9 -55 -19 33 -10 134 16 200 14 34 22 65 17 68 -15 9 -10 57 10 89 12 20
16 42 13 63 -7 49 5 78 37 92 30 12 71 6 71 -10 0 -15 -57 -40 -74 -34 -18 7
-31 -18 -22 -42 5 -13 15 -7 54 27 26 23 65 50 87 60 49 23 133 25 163 3z
m3347 -3 c22 -10 61 -37 87 -60 39 -34 49 -40 54 -27 9 24 -4 49 -22 42 -17
-7 -74 19 -74 34 0 21 52 23 78 3 23 -17 27 -28 28 -69 0 -27 8 -63 17 -81 18
-35 22 -78 8 -87 -5 -3 2 -32 14 -63 32 -80 38 -130 23 -181 l-13 -44 0 74 c0
51 -6 87 -19 116 l-19 43 -44 -7 c-28 -4 -48 -2 -58 6 -12 10 -15 10 -15 -2 0
-8 -9 -23 -21 -34 -12 -10 -27 -31 -35 -46 -8 -15 -23 -29 -34 -33 -11 -3 -20
-15 -20 -25 0 -25 -41 -55 -52 -37 -5 8 -8 3 -9 -13 -1 -21 -3 -20 -12 10 -14
48 -51 96 -98 127 -40 27 -93 33 -112 14 -7 -7 -15 -7 -24 0 -16 14 -17 29 -2
29 6 0 22 14 36 30 13 17 34 30 44 30 12 0 17 4 14 11 -8 11 22 49 39 49 6 1
34 21 61 46 28 24 42 42 33 38 -39 -14 -53 84 -16 110 30 22 114 20 163 -3z
m-2938 -313 c28 -26 47 -89 38 -129 -8 -34 -12 -35 -45 -9 -18 14 -41 20 -86
20 l-61 0 -69 -87 c-104 -130 -98 -116 -61 -149 31 -28 31 -28 8 -2 -28 32
-33 22 72 141 l69 77 54 0 c51 0 60 -4 142 -63 236 -171 448 -298 707 -423
179 -87 388 -174 416 -174 25 0 247 93 414 174 252 122 475 255 692 412 97 71
104 74 156 74 l55 0 69 -77 c105 -119 100 -109 72 -141 -23 -26 -23 -26 8 2
37 33 43 19 -61 149 l-69 87 -60 0 c-44 0 -66 -5 -89 -21 -16 -12 -32 -18 -36
-14 -4 4 -7 28 -6 55 1 81 51 133 127 132 36 -1 47 -6 77 -41 131 -149 140
-158 187 -175 26 -10 61 -22 76 -28 17 -7 36 -25 45 -45 15 -32 15 -36 -3 -68
-10 -19 -21 -35 -24 -35 -3 0 -17 -10 -31 -21 -14 -11 -19 -17 -11 -13 8 4 46
8 86 10 105 4 178 35 243 100 63 65 69 55 8 -13 -82 -91 -245 -151 -342 -125
-24 7 -62 12 -83 12 -41 0 -66 19 -66 51 0 9 -31 51 -68 93 l-68 76 -65 -55
c-38 -32 -70 -52 -79 -49 -9 4 -19 -4 -26 -20 -24 -52 -404 -314 -690 -476
-187 -106 -175 -98 -165 -107 25 -25 588 325 884 549 l145 109 59 -58 c32 -31
57 -61 56 -65 -2 -5 -37 -37 -78 -73 -57 -49 -80 -63 -95 -58 -16 5 -18 3 -8
-8 10 -12 -8 -30 -95 -102 l-107 -88 -12 28 -12 28 -1 -37 c0 -43 -16 -57
-237 -216 -67 -48 -122 -90 -122 -93 -2 -15 194 -33 387 -35 l213 -2 157 -110
c86 -61 249 -170 362 -243 113 -73 207 -134 209 -136 10 -7 -11 -15 -99 -40
l-92 -26 -54 26 c-30 15 -57 27 -60 27 -3 0 7 -15 21 -34 l26 -35 -33 -6
c-163 -29 -194 -32 -205 -23 -7 6 -13 8 -13 5 0 -3 -16 1 -35 9 -42 17 -48 18
-39 2 4 -7 -4 -3 -18 10 l-25 22 -11 -24 c-9 -19 -8 -27 1 -33 20 -13 -59 -22
-188 -22 -119 0 -360 21 -371 32 -3 3 -9 44 -11 91 -6 90 -16 110 -27 52 -4
-19 -13 -57 -21 -84 l-15 -50 -43 10 c-123 29 -118 26 -111 56 l7 27 -24 -22
c-24 -21 -25 -21 -83 -5 -41 11 -60 22 -64 35 -4 14 -7 15 -13 6 -9 -15 -27
-10 -157 43 -55 23 -72 34 -68 47 3 9 7 43 10 76 l6 60 -23 -64 c-13 -36 -28
-66 -33 -68 -20 -7 -377 179 -528 275 l-40 25 23 18 c27 22 27 22 -18 9 -31
-9 -40 -5 -125 52 -118 79 -262 182 -356 255 -64 50 -75 63 -78 93 -4 34 -4
34 -16 12 -12 -23 -14 -22 -119 65 -87 72 -104 90 -94 102 10 11 8 13 -8 8
-15 -5 -38 9 -95 58 -41 36 -76 68 -78 73 -1 4 24 34 57 66 l59 58 69 -54 c98
-77 258 -192 405 -290 70 -47 124 -89 120 -93 -4 -5 -1 -5 6 -1 6 4 24 -1 40
-12 46 -33 321 -187 439 -246 330 -165 679 -287 973 -340 104 -18 266 -36 317
-35 21 1 -14 7 -79 15 -219 25 -482 88 -713 171 -213 76 -574 242 -614 282 -9
9 -24 18 -33 18 -21 0 -234 127 -411 245 -157 104 -350 246 -454 335 l-62 53
-68 -76 c-37 -42 -67 -84 -66 -94 4 -32 -31 -52 -85 -49 -28 2 -48 1 -46 -3 9
-14 -90 -20 -143 -8 -103 23 -222 102 -259 172 -23 43 -16 44 15 2 63 -89 155
-134 278 -139 l72 -2 -30 29 c-68 68 -41 132 69 163 12 3 22 12 22 20 0 7 17
28 38 46 20 18 36 36 35 41 -4 12 47 42 55 33 4 -4 1 -10 -5 -12 -7 -3 -13
-10 -13 -17 0 -6 -12 -19 -27 -28 -33 -20 -81 -68 -67 -68 19 0 95 72 136 129
23 31 49 61 57 66 45 28 108 21 148 -17z m1167 -282 c9 -77 4 -105 -21 -113
-6 -2 -17 2 -24 10 -11 11 -16 12 -26 1 -7 -7 -13 -18 -13 -24 0 -6 -5 -8 -11
-4 -7 4 -25 7 -42 6 -28 -1 -29 0 -23 36 3 20 6 53 7 72 0 19 3 29 6 22 3 -9
12 -2 26 20 12 18 22 36 23 41 1 4 2 10 3 13 0 3 20 4 44 2 l42 -3 9 -79z
m-354 55 c0 -5 -6 -12 -12 -15 -7 -4 -3 -4 10 -2 12 2 22 -1 22 -7 0 -7 5 -4
11 6 13 22 69 24 69 1 0 -8 -6 -25 -12 -37 -7 -12 -15 -51 -18 -87 l-5 -65
-19 41 c-14 31 -23 40 -37 37 -10 -3 -25 2 -34 10 -15 16 -21 81 -9 111 7 17
34 22 34 7z m696 1 c6 -4 14 -14 17 -22 4 -11 6 -10 7 5 l1 20 9 -20 c7 -17 9
-17 9 -2 1 11 9 17 26 17 24 0 25 -3 25 -59 0 -46 -4 -60 -17 -66 -34 -15 -43
-13 -43 8 0 16 -6 10 -19 -19 -10 -23 -23 -44 -28 -47 -11 -7 -38 167 -28 183
7 12 25 13 41 2z m-1016 -797 c5 -14 14 -25 19 -25 5 0 13 -9 16 -20 3 -11 11
-20 18 -20 6 0 30 -18 53 -41 50 -49 49 -74 -5 -89 -95 -25 -175 -41 -187 -36
-7 3 -16 1 -18 -3 -6 -9 -115 -27 -241 -40 -57 -6 -67 -9 -35 -10 25 0 102 6
172 14 107 12 179 26 385 72 15 4 35 -5 63 -27 43 -34 50 -54 24 -68 -12 -7
-13 -11 -5 -17 19 -11 44 3 37 21 -3 9 -3 14 1 12 16 -6 183 -142 183 -148 0
-3 -36 -18 -81 -34 -67 -24 -83 -27 -90 -15 -7 11 -9 11 -9 -3 0 -11 -20 -23
-65 -38 l-65 -22 -21 24 -20 23 4 -27 c4 -25 0 -29 -37 -39 -23 -7 -59 -12
-81 -13 l-40 -1 -20 77 c-11 42 -23 79 -26 82 -3 4 -9 -35 -12 -85 -3 -50 -7
-93 -10 -95 -11 -11 -175 -27 -322 -30 -181 -4 -253 2 -236 19 6 6 6 18 -1 33
l-11 24 -25 -22 c-14 -13 -22 -17 -18 -10 9 16 5 15 -52 -7 -47 -19 -50 -19
-153 0 -57 10 -108 19 -112 19 -5 0 1 14 13 31 12 16 27 28 34 26 6 -2 22 0
35 5 19 6 22 11 13 20 -9 9 -31 3 -91 -27 l-79 -38 -93 26 c-88 25 -107 33
-98 40 61 46 264 167 279 167 12 0 19 4 15 9 -3 5 59 53 137 107 79 53 178
122 220 153 l77 55 173 -2 c95 -1 202 2 238 7 121 16 139 14 150 -14z"/>
<path d="M3110 3161 c-19 -27 -58 -67 -87 -90 -58 -45 -79 -78 -89 -141 -8
-46 -6 -46 56 -2 22 16 24 16 17 0 -9 -25 5 -30 64 -22 48 6 52 9 70 48 10 23
19 57 19 76 1 31 4 27 31 -41 20 -53 36 -79 49 -82 11 -3 18 -1 14 4 -3 5 4 9
16 9 20 0 20 1 6 22 -24 34 -19 42 11 19 16 -14 33 -19 46 -15 15 5 18 3 12
-7 -6 -11 -5 -11 5 -2 21 20 -6 77 -81 168 -65 78 -95 106 -116 105 -4 -1 -24
-23 -43 -49z"/>
<path d="M1534 2821 c-48 -34 -74 -71 -81 -116 -7 -43 13 -56 39 -24 l19 24
-6 -25 c-4 -18 0 -15 14 12 11 20 38 51 58 68 21 18 31 29 23 25 -8 -3 -4 3 9
14 13 12 29 21 37 21 19 0 18 16 -2 24 -33 13 -73 5 -110 -23z"/>
<path d="M4602 2841 c-10 -6 -4 -13 25 -27 21 -11 37 -22 35 -27 -1 -4 13 -21
32 -37 18 -17 39 -44 46 -60 7 -17 15 -29 17 -26 3 2 0 15 -7 28 -9 19 -7 18
13 -6 45 -52 63 -7 27 65 -36 69 -142 120 -188 90z"/>
<path d="M1543 2591 c-90 -41 -79 -120 16 -121 15 0 39 15 64 42 38 40 39 42
18 49 -12 5 -21 17 -21 29 0 25 -22 26 -77 1z"/>
<path d="M4640 2590 c0 -12 -9 -24 -22 -29 -22 -8 -22 -9 18 -50 41 -40 63
-48 111 -35 26 7 38 47 22 75 -11 22 -81 58 -111 59 -11 0 -18 -8 -18 -20z"/>
</g>
</svg>
